<?xml version="1.0" encoding="UTF-8" standalone="no"?>
<!DOCTYPE svg  PUBLIC '-//W3C//DTD SVG 1.1//EN'  'http://www.w3.org/Graphics/SVG/1.1/DTD/svg11.dtd'>
<svg xmlns="http://www.w3.org/2000/svg">
<defs>
<font id="PFDinDisplayPro-Thin" horiz-adv-x="473">
<font-face underline-position="-50" font-weight="200" descent="-200" panose-1="2 0 5 6 0 0 0 2 0 4" units-per-em="1000" unicode-range="U+0020-25CA" bbox="-39 -211 1031 902" x-height="490" underline-thickness="50" font-family="PFDinDisplayPro" ascent="800" cap-height="689"/>
<missing-glyph horiz-adv-x="1000"/>
<glyph glyph-name=".notdef" horiz-adv-x="1000"/>
<glyph glyph-name=".null" horiz-adv-x="0"/>
<glyph glyph-name="nonmarkingreturn" horiz-adv-x="333"/>
<glyph glyph-name="space" horiz-adv-x="205" unicode=" "/>
<glyph glyph-name="exclam" horiz-adv-x="211" unicode="!" d="M86 152q0 63 -1 132t-1.5 139t-1.5 139.5t-2 133.5h49q0 -64 -1 -133.5t-1.5 -139.5t-1.5 -139t-2 -132h-37zM68 35q0 14 10 25t27 11t28 -11t11 -25q0 -17 -10.5 -27t-27.5 -10q-18 0 -28 10t-10 27z"/>
<glyph glyph-name="quotedbl" horiz-adv-x="246" unicode='&quot;' d="M57 519v177h37v-177h-37zM152 519v177h37v-177h-37z"/>
<glyph glyph-name="numbersign" horiz-adv-x="491" unicode="#" d="M180 441l-24 -183h144l25 183h-145zM363 441l-26 -183h103v-35h-107l-30 -223h-39l31 223h-144l-31 -223h-39l31 223h-96v35h101l25 183h-97v35h103l30 219h36l-29 -219h145l31 219h37l-30 -219h100v-35h-105z"/>
<glyph glyph-name="dollar" d="M250 689q45 -2 88.5 -12t82.5 -32l-20 -40q-77 42 -168 42q-29 0 -56 -8t-48 -25.5t-34 -44t-13 -63.5q0 -35 15 -58.5t39.5 -39t54.5 -24.5t60 -16q43 -9 80.5 -22t65 -34t43 -53t15.5 -80q0 -42 -15 -75t-42 -56.5t-64.5 -37t-83.5 -14.5v-92h-36v93q-106 4 -191 65 l24 37q42 -28 91 -44.5t101 -16.5q36 0 67 9t53.5 27t35.5 44t13 61q0 39 -15 64.5t-39 42t-55 25.5t-62 15q-36 7 -72.5 19t-65 32.5t-46.5 52t-18 78.5q0 38 13 69.5t36.5 55t56.5 38t73 17.5v85h36v-84z" unicode="$"/>
<glyph glyph-name="percent" horiz-adv-x="760" unicode="%" d="M186 -17h-39l424 731h40zM676 298q0 22 -9 37.5t-23 25.5t-30.5 14t-31.5 4t-31 -4t-30 -14t-23 -25.5t-9 -37.5v-186q0 -22 9 -37.5t23 -25t30 -13.5t31 -4t31.5 4t30.5 13.5t23 25t9 37.5v186zM715 106q0 -24 -10 -44t-27.5 -35t-42 -23t-53.5 -8q-59 0 -96 31.5 t-37 79.5v199q0 23 10.5 43t28.5 35t42 23.5t52 8.5q29 0 53.5 -8.5t42 -23.5t27.5 -35t10 -43v-200zM271 577q0 22 -9 37.5t-23 25t-30.5 13.5t-31.5 4t-31 -4t-30 -13.5t-23 -25t-9 -37.5v-186q0 -22 9 -37.5t23 -25t30 -13.5t31 -4t31.5 4t30.5 13.5t23 25t9 37.5v186z M310 385q0 -24 -10 -44t-27.5 -35t-42 -23t-53.5 -8q-59 0 -96 31t-37 79v199q0 24 10.5 44t28.5 34.5t42 23t52 8.5q29 0 53.5 -8.5t42 -23t27.5 -34.5t10 -44v-199z"/>
<glyph glyph-name="ampersand" horiz-adv-x="791" unicode="&amp;" d="M530 100q-60 63 -114 134.5t-99 135.5q-33 -18 -62 -38t-50.5 -43t-34 -49.5t-12.5 -56.5q0 -40 13 -69t35.5 -48t52.5 -28.5t63 -9.5q48 0 102.5 17t105.5 55zM458 559q0 19 -8 35.5t-21 28t-30 18t-35 6.5q-24 0 -41 -10t-27.5 -25t-15.5 -32t-5 -31q0 -28 16 -60.5 t42 -68.5q25 13 47.5 27.5t40 31t27.5 36.5t10 44zM726 -46q-47 21 -90.5 52.5t-80.5 66.5q-53 -41 -113 -61t-116 -20q-44 0 -81.5 11.5t-66 35t-44.5 59t-16 83.5q0 70 47 123t130 98q-34 45 -48 80.5t-14 64.5q0 28 9 53t26 44t41.5 30t55.5 11q30 0 55 -10t42.5 -27.5 t27.5 -40.5t10 -48q0 -54 -39 -95.5t-106 -76.5q19 -30 43.5 -63.5t51 -67.5t55 -67t55.5 -63q28 26 52 57.5t41.5 67t27.5 75t10 81.5q0 69 -20.5 132t-61 111t-100 76.5t-138.5 28.5q-64 0 -117.5 -20t-92.5 -54t-61 -79t-22 -94q0 -35 12 -72.5t38 -72.5l-31 -22 q-29 40 -42.5 81.5t-13.5 83.5q0 56 24 107.5t67.5 91t104 63t133.5 23.5q87 0 154 -31t112.5 -83.5t69 -122.5t23.5 -148q0 -47 -11 -90t-30.5 -82t-45.5 -72.5t-57 -61.5q40 -38 79.5 -67t79.5 -45z"/>
<glyph glyph-name="quotesingle" horiz-adv-x="211" unicode="&apos;" d="M90 519v177h38v-177h-38z"/>
<glyph glyph-name="parenleft" horiz-adv-x="262" unicode="(" d="M229 -119q-34 39 -63.5 87t-51.5 102t-35 112t-13 118q0 57 12 114.5t33 112t50.5 103.5t64.5 90l22 -13q-62 -88 -97 -193.5t-35 -208.5q0 -112 36 -218t96 -191z"/>
<glyph glyph-name="parenright" horiz-adv-x="262" unicode=")" d="M27 -106q60 85 95.5 191t35.5 218q0 104 -34.5 209t-96.5 193l21 13q36 -41 65.5 -90t50.5 -103.5t33 -112t12 -114.5q0 -59 -13 -117.5t-35 -112.5t-51.5 -102t-62.5 -87z"/>
<glyph glyph-name="asterisk" horiz-adv-x="343" unicode="*" d="M279 447q-5 -4 -18 -14t-18 -13l-69 108l-68 -109l-35 28l79 96q-5 1 -22.5 6.5t-38 11.5t-38 11.5t-21.5 6.5q2 5 6.5 20t6.5 21l118 -49l-8 125h42l-8 -125l119 49l13 -42l-121 -35z"/>
<glyph glyph-name="plus" d="M255 261v-194h-37v194h-188v38h188v192h37v-192h188v-38h-188z" unicode="+"/>
<glyph glyph-name="comma" horiz-adv-x="200" unicode="," d="M60 33q0 16 12 26.5t29 10.5q21 0 33 -15.5t12 -39.5q0 -35 -20.5 -66t-49.5 -46l-16 20q39 29 41 72h-3q-16 0 -27 10t-11 28z"/>
<glyph glyph-name="hyphen" horiz-adv-x="370" unicode="-" d="M53 245v43h264v-43h-264z"/>
<glyph glyph-name="period" horiz-adv-x="188" unicode="." d="M55 36q0 14 10.5 25.5t29.5 11.5q17 0 28.5 -11.5t11.5 -25.5q0 -17 -10.5 -29t-29.5 -12t-29.5 11.5t-10.5 29.5z"/>
<glyph glyph-name="slash" horiz-adv-x="290" unicode="/" d="M41 -25h-39l245 743h39z"/>
<glyph glyph-name="zero" d="M392 504q0 41 -15 69.5t-38 46t-50.5 25.5t-51.5 8t-51.5 -8t-50 -25.5t-37.5 -46t-15 -69.5v-320q0 -41 15 -69t37.5 -45.5t50 -25.5t51.5 -8t51.5 8t50.5 25.5t38 45.5t15 69v320zM437 171q0 -39 -15.5 -71.5t-42.5 -56t-63.5 -36.5t-78.5 -13t-78.5 13.5t-63.5 37.5 t-42.5 56.5t-15.5 71.5v344q0 39 16 71.5t43.5 56.5t63.5 37.5t77 13.5q42 0 78.5 -13.5t63.5 -37.5t42.5 -56.5t15.5 -71.5v-346z" unicode="0"/>
<glyph glyph-name="one" d="M274 0v633l-117 -90q-4 5 -12.5 17.5t-12.5 17.5q6 5 26.5 21t44.5 34.5t45 34.5t27 21h45v-689h-46z" unicode="1"/>
<glyph glyph-name="two" d="M436 523q0 -33 -13 -63.5t-35 -58.5t-51 -52t-60 -43q-29 -18 -62 -41.5t-62 -53t-48 -65.5t-19 -78v-27h348v-41h-396v58q0 47 17 87t45.5 73.5t64.5 62t75 53.5q63 39 105.5 85.5t42.5 100.5q0 35 -13.5 60t-35.5 41t-51 23.5t-59 7.5q-50 0 -89 -16t-68 -38l-26 35 q30 25 77.5 43.5t102.5 18.5q40 0 78 -9t67 -29.5t47 -53.5t18 -80z" unicode="2"/>
<glyph glyph-name="three" d="M229 694q35 0 69 -10t60.5 -31t43 -53.5t16.5 -77.5q0 -26 -6.5 -51t-20 -47t-33.5 -38.5t-47 -25.5q30 -10 51 -28t34.5 -40.5t19.5 -48.5t6 -51q0 -47 -16.5 -83.5t-45 -62t-66 -39t-80.5 -13.5q-63 0 -109 20t-75 44q4 6 13.5 18t13.5 18q29 -24 69.5 -41.5 t86.5 -17.5q34 0 64 10.5t52.5 30.5t35 48t12.5 63q0 36 -11 63.5t-29.5 46.5t-41.5 29t-47 10h-76v42h76q18 0 39 8.5t40 26t31.5 44t12.5 63.5q0 36 -13 61t-34 41t-46.5 23t-50.5 7q-44 0 -84.5 -16t-68.5 -39l-28 35q41 32 83 47t100 15z" unicode="3"/>
<glyph glyph-name="four" d="M384 113v-113h-47v113h-312v42q60 134 119 267t118 267h48l-235 -534h262v216h47v-216h61v-42h-61z" unicode="4"/>
<glyph glyph-name="five" d="M428 169q0 -38 -15.5 -70.5t-43 -55.5t-65 -36t-81.5 -13q-63 0 -105 20.5t-72 45.5l28 35q31 -26 68.5 -43t80.5 -17q21 0 48.5 6t52 22t42 44t17.5 71v99q0 65 -30 97t-83 32q-20 0 -43 -6.5t-46.5 -16.5t-45.5 -22t-39 -23q-3 1 -9.5 3.5t-14 5.5t-14 5.5t-9.5 3.5 v333h361v-43h-314v-259q50 31 97.5 48t78.5 17q75 0 115.5 -45t40.5 -122v-116z" unicode="5"/>
<glyph glyph-name="six" d="M386 247q0 66 -31 97.5t-80 31.5q-43 0 -91 -22.5t-96 -51.5v-118q0 -40 14 -68t35.5 -46t47.5 -26t50 -8t50.5 8.5t49 26.5t37 46t14.5 67v63zM42 518q0 40 16 72.5t43 56t63 36.5t77 13q63 0 104.5 -19.5t68.5 -45.5l-30 -36q-28 27 -62 42t-81 15q-23 0 -50 -8 t-50 -25.5t-38 -46.5t-15 -71v-152q62 38 110 55.5t80 17.5q74 0 114 -45.5t40 -122.5v-80q0 -39 -15.5 -72t-42 -57t-62.5 -37t-77 -13t-76 12.5t-61 35.5t-41 55.5t-15 71.5v348z" unicode="6"/>
<glyph glyph-name="seven" d="M169 0h-50l262 647h-295v-109h-45v151h389v-44z" unicode="7"/>
<glyph glyph-name="eight" d="M235 36q35 0 64.5 10.5t50.5 29.5t33 46.5t12 62.5q0 32 -12 59t-33.5 46.5t-51 30.5t-63.5 11q-32 0 -61 -11t-51 -30.5t-35 -47t-13 -60.5q0 -66 42.5 -106.5t117.5 -40.5zM237 652q-27 0 -54 -9t-48 -26.5t-34 -44t-13 -62.5q0 -31 12 -56.5t32 -43.5t47 -28t56 -10 q28 0 55.5 10t48.5 28t34 43.5t13 57.5q0 35 -13 61.5t-34 44t-47.5 26.5t-54.5 9zM236 694q38 0 73.5 -11.5t62.5 -35t43.5 -57.5t16.5 -79q0 -24 -7 -48t-20.5 -45t-35 -38t-49.5 -27q35 -11 58.5 -29.5t37.5 -41.5t20 -47.5t6 -46.5q0 -48 -17.5 -84.5t-46.5 -60.5 t-66.5 -36.5t-78.5 -12.5t-78.5 12t-65.5 35.5t-44.5 59t-16.5 82.5q0 24 7.5 49t22.5 48.5t38 42.5t55 30q-53 19 -80.5 63t-27.5 92q0 45 16 80t43 58.5t61.5 35.5t72.5 12z" unicode="8"/>
<glyph glyph-name="nine" d="M85 445q0 -66 31.5 -97.5t80.5 -31.5q42 0 90 23t96 51v117q0 40 -14 68t-35 45.5t-47 25.5t-50 8t-51 -8t-49.5 -26t-37 -46t-14.5 -67v-62zM430 173q0 -40 -16 -72.5t-43 -56t-63.5 -36.5t-76.5 -13q-63 0 -105 19.5t-68 45.5l30 36q28 -27 61.5 -42t80.5 -15 q24 0 50.5 7.5t49.5 25.5t38 47t15 71v153q-122 -73 -189 -73q-74 0 -114 44.5t-40 123.5v78q0 39 15.5 72t42 57t62.5 37.5t77 13.5q40 0 75 -12.5t61 -35.5t41.5 -55.5t15.5 -71.5v-348z" unicode="9"/>
<glyph glyph-name="colon" horiz-adv-x="199" unicode=":" d="M58 357q0 16 11 27.5t29 11.5q17 0 29 -11.5t12 -27.5q0 -17 -11 -28.5t-29 -11.5q-19 0 -30 11.5t-11 28.5zM58 36q0 14 11 25.5t29 11.5q17 0 29 -11.5t12 -25.5q0 -17 -11 -29t-29 -12q-19 0 -30 11.5t-11 29.5z"/>
<glyph glyph-name="semicolon" horiz-adv-x="199" unicode=";" d="M56 33q0 16 12 26.5t29 10.5q21 0 33 -15.5t12 -39.5q0 -35 -20.5 -66t-49.5 -46l-16 20q39 29 41 72h-3q-16 0 -27 10t-11 28zM58 357q0 16 11 27.5t29 11.5q17 0 29 -11.5t12 -27.5q0 -17 -11.5 -28.5t-28.5 -11.5q-19 0 -30 11.5t-11 28.5z"/>
<glyph glyph-name="less" d="M437 80l-402 182v36l401 182v-41l-355 -159q30 -13 78 -34.5t99.5 -44.5t99.5 -44.5t79 -34.5v-42z" unicode="&lt;"/>
<glyph glyph-name="equal" d="M30 163v38h413v-38h-413zM30 340v37h413v-37h-413z" unicode="="/>
<glyph glyph-name="greater" d="M35 122q31 13 79 34.5t99 44.5t99 44.5t79 34.5l-355 159v41l401 -182v-36l-402 -182v42z" unicode="&gt;"/>
<glyph glyph-name="question" horiz-adv-x="432" unicode="?" d="M173 35q0 14 10 25t27 11t28 -11t11 -25q0 -17 -10.5 -27t-27.5 -10q-18 0 -28 10t-10 27zM198 698q43 0 76 -12t56 -34t35 -51.5t12 -64.5q0 -46 -23 -84t-51 -74t-51 -73.5t-23 -81.5v-64h-41v64q0 52 22.5 92.5t49.5 76.5t49.5 69.5t22.5 71.5q0 55 -36.5 90.5 t-103.5 35.5q-38 0 -74 -11.5t-65 -30.5l-21 35q41 25 80.5 35.5t85.5 10.5z"/>
<glyph glyph-name="at" horiz-adv-x="837" unicode="@" d="M526 346h-122q-16 0 -34 -2.5t-33 -11t-25 -23.5t-10 -40q0 -39 25 -57.5t60 -18.5q31 0 68.5 16t70.5 39v98zM792 361q0 -56 -14 -95.5t-36 -65t-49.5 -37t-55.5 -11.5q-32 0 -61.5 13.5t-40.5 45.5q-48 -29 -87 -41t-66 -12q-54 0 -87.5 28t-33.5 82q0 31 12.5 52.5 t31.5 34.5t41.5 19t42.5 6h137v34q0 30 -8 49.5t-22.5 31t-34.5 15.5t-45 4q-19 0 -46.5 -7t-62.5 -30l-23 31q35 24 70 33.5t64 9.5q76 0 111 -33t35 -97v-170q1 -24 18.5 -44.5t57.5 -20.5q22 0 43 11t37 33t25.5 54.5t9.5 76.5q0 66 -21.5 122t-62 97t-98 64t-129.5 23 q-73 0 -138 -25t-113.5 -69.5t-77 -105t-28.5 -131.5q0 -72 25 -133t69.5 -106t105.5 -70t133 -25q32 0 61 5t66 21l14 -34q-41 -17 -78 -22t-63 -5q-81 0 -148.5 27.5t-117 76.5t-77 116.5t-27.5 147.5t31 147.5t85 116t125.5 76t152.5 27.5q82 0 146.5 -26.5t109.5 -72 t68.5 -108t23.5 -134.5z"/>
<glyph glyph-name="A" horiz-adv-x="568" unicode="A" d="M284 630q-4 -12 -14.5 -44.5t-25 -75t-30.5 -90.5t-30.5 -90.5t-25.5 -75t-15 -44.5h284q-4 12 -14.5 44.5t-25 75t-31 90.5t-31 91t-25.5 75t-15 44h-1zM501 0q-14 42 -29 83t-30 83h-315q-14 -42 -28 -83t-28 -83h-51l238 689h54l240 -689h-51z"/>
<glyph glyph-name="B" horiz-adv-x="574" unicode="B" d="M481 188q0 35 -12.5 63t-33 48t-47.5 31t-57 11h-227v-298h225q32 0 59.5 9t48 27t32.5 45.5t12 63.5zM468 514q0 36 -12.5 60.5t-33.5 40.5t-48.5 23t-57.5 7h-212v-260h224q26 0 51.5 8t45 24t31.5 40t12 57zM529 188q0 -37 -12.5 -71t-36.5 -60t-59.5 -41.5 t-80.5 -15.5h-284v689l272 -1q48 0 83.5 -14t59.5 -37.5t35.5 -55t11.5 -66.5q0 -21 -5 -43t-17.5 -42.5t-33.5 -38t-52 -28.5q34 -11 56.5 -30.5t36.5 -44t20 -50.5t6 -50z"/>
<glyph glyph-name="C" horiz-adv-x="502" unicode="C" d="M293 696q52 0 95.5 -12t82.5 -39l-26 -39q-32 23 -71 34.5t-81 11.5q-36 0 -71 -11t-62.5 -34.5t-44 -60t-16.5 -87.5v-227q0 -51 17 -88t44 -61t61 -35.5t69 -11.5q88 0 157 49l25 -37q-27 -20 -73 -37.5t-106 -17.5q-55 0 -100 17t-76.5 48t-48.5 73t-17 93v244 q0 50 17.5 92t49.5 72t76.5 47t98.5 17z"/>
<glyph glyph-name="D" horiz-adv-x="581" unicode="D" d="M484 455q0 52 -16 88t-41 58.5t-57 33t-63 10.5h-203v-603h191q34 0 67.5 10t60.5 32.5t44 58.5t17 89v223zM533 223q0 -50 -16 -91t-45.5 -70t-71 -45.5t-92.5 -16.5h-252v689h255q51 0 92.5 -16.5t70 -46.5t44 -71.5t15.5 -91.5v-240z"/>
<glyph glyph-name="E" horiz-adv-x="532" unicode="E" d="M57 0v689h443v-44h-395v-274h340v-43h-340v-285h395v-43h-443z"/>
<glyph glyph-name="F" horiz-adv-x="516" unicode="F" d="M105 645v-274h340v-44h-340v-327h-48v689h444v-44h-396z"/>
<glyph glyph-name="G" horiz-adv-x="549" unicode="G" d="M501 72q-43 -41 -96.5 -60t-112.5 -19q-55 0 -100 17t-77 48t-49.5 73t-17.5 93v244q0 50 18 92t50.5 72t78 47t101.5 17q52 0 97 -12t83 -39l-26 -39q-32 23 -72 34.5t-82 11.5q-38 0 -73.5 -11t-64 -34.5t-45.5 -60t-17 -87.5v-227q0 -51 16.5 -88t44 -61t62.5 -35.5 t72 -11.5q12 0 30 1.5t39.5 7.5t45 17t47.5 30v205h-119v45h167v-270z"/>
<glyph glyph-name="H" horiz-adv-x="596" unicode="H" d="M492 0v329h-390v-329h-47v689h47v-317h390v317h50v-689h-50z"/>
<glyph glyph-name="I" horiz-adv-x="216" unicode="I" d="M84 0v689h48v-689h-48z"/>
<glyph glyph-name="J" horiz-adv-x="504" unicode="J" d="M420 225q0 -51 -15.5 -93.5t-45.5 -73t-74.5 -48t-101.5 -17.5q-47 0 -87.5 12.5t-69.5 30.5l23 39q32 -19 64 -29t67 -10q41 0 76.5 11.5t61 36t40 62t14.5 88.5v456h48v-465z"/>
<glyph glyph-name="K" horiz-adv-x="539" unicode="K" d="M293 423l245 -423h-56l-222 383q-39 -48 -78 -97t-79 -98v-188h-48v689h48v-427l346 427h58z"/>
<glyph glyph-name="L" horiz-adv-x="502" unicode="L" d="M58 0v689h48v-646h392v-43h-440z"/>
<glyph glyph-name="M" horiz-adv-x="707" unicode="M" d="M603 577h-1q-29 -62 -55.5 -118t-52.5 -110q-31 -62 -59.5 -120.5t-57.5 -118.5h-40l-122 245l-110 223h-2v-578h-48v689h48q38 -79 76.5 -156.5t76.5 -155.5q25 -52 49.5 -103.5t50.5 -102.5l36 72l63 134q38 78 76.5 156.5t74.5 155.5h45v-689h-48v577z"/>
<glyph glyph-name="N" horiz-adv-x="613" unicode="N" d="M505 0q-63 95 -125.5 189.5t-126.5 190.5q-37 56 -73.5 112.5t-75.5 111.5v-604h-48v689h48l256 -386q37 -56 73.5 -111.5t74.5 -110.5v608h48v-689h-51z"/>
<glyph glyph-name="O" horiz-adv-x="587" unicode="O" d="M488 459q0 49 -16 85.5t-43 60.5t-62 35.5t-74 11.5q-40 0 -75.5 -11.5t-61.5 -35.5t-41.5 -60.5t-15.5 -85.5v-231q0 -51 17 -87t44.5 -59.5t62.5 -34.5t70 -11q40 0 75.5 11.5t62 35t42 59.5t15.5 86v231zM536 220q0 -51 -17.5 -93t-49 -71.5t-76.5 -46t-100 -16.5 q-56 0 -100.5 16.5t-76 47t-48.5 73t-17 93.5v245q0 50 16.5 92t48 72t76.5 47t101 17q55 0 100 -17t76.5 -47.5t49 -72.5t17.5 -91v-248z"/>
<glyph glyph-name="P" horiz-adv-x="539" unicode="P" d="M467 492q0 35 -12 63t-32.5 48t-48 31t-58.5 11h-214v-304h214q31 0 58.5 10t48 29.5t32.5 47.5t12 64zM516 492q0 -36 -12.5 -71t-37 -63t-60 -45t-81.5 -17h-223v-296h-47v689h270q48 0 84 -17.5t60 -45.5t35.5 -63t11.5 -71z"/>
<glyph glyph-name="Q" horiz-adv-x="587" unicode="Q" d="M488 459q0 49 -16 85.5t-43 60.5t-62 35.5t-74 11.5q-40 0 -75.5 -11.5t-61.5 -35.5t-41.5 -60.5t-15.5 -85.5v-231q0 -51 17 -87t44.5 -59.5t62.5 -34.5t70 -11q40 0 75.5 11.5t62 35t42 59.5t15.5 86v231zM536 220q0 -48 -15.5 -88.5t-44.5 -70t-70 -47t-91 -20.5v-32 q0 -49 22 -69t71 -20h11t13 1v-42q-9 -1 -18 -1.5t-17 -0.5q-69 0 -98 33t-29 96v35q-51 3 -91.5 21t-69 48t-43.5 70.5t-15 89.5v245q0 50 16.5 92t48 72t76.5 47t101 17q55 0 100 -17t76.5 -47.5t49 -72.5t17.5 -91v-248z"/>
<glyph glyph-name="R" horiz-adv-x="555" unicode="R" d="M104 644v-304h215q31 0 58.5 10t48.5 29.5t33 47.5t12 64q0 35 -12 63.5t-33 48.5t-48.5 30.5t-58.5 10.5h-215zM104 0h-48v689h270q49 0 85.5 -17.5t60.5 -45.5t36 -63.5t12 -71.5q0 -29 -8.5 -58t-26 -54.5t-43.5 -45t-60 -28.5l134 -305h-53l-129 296h-230v-296z"/>
<glyph glyph-name="S" horiz-adv-x="536" unicode="S" d="M504 181q0 -44 -17 -78.5t-48 -58.5t-74.5 -37t-97.5 -13q-68 0 -126 17.5t-111 50.5l27 37q46 -28 100 -45t111 -17q39 0 73 9.5t59 27.5t39.5 45t14.5 62q0 40 -16.5 65.5t-43 41.5t-60.5 25t-68 16q-40 7 -79.5 19.5t-70.5 33.5t-50.5 53t-19.5 79q0 41 15 75t43 58 t68.5 37.5t90.5 13.5q55 0 107 -10t98 -35l-22 -42q-43 23 -91 33t-96 10q-32 0 -61.5 -8t-52 -25.5t-36.5 -44.5t-14 -64q0 -36 16.5 -59.5t43.5 -39t60.5 -24.5t66.5 -16q47 -10 87.5 -23t70.5 -34t47 -53.5t17 -81.5z"/>
<glyph glyph-name="T" horiz-adv-x="513" unicode="T" d="M281 644v-644h-48v644h-216v45h478v-45h-214z"/>
<glyph glyph-name="U" horiz-adv-x="590" unicode="U" d="M539 219q0 -51 -18 -93t-50.5 -71.5t-77.5 -45.5t-98 -16q-54 0 -98.5 16t-76.5 46t-50 72t-18 93v469h49v-461q0 -51 16.5 -87t43.5 -59t62 -34t72 -11q38 0 73.5 11t62.5 34t43 59t16 87v461h49v-470z"/>
<glyph glyph-name="V" horiz-adv-x="544" unicode="V" d="M269 66q7 19 13.5 37t12.5 36q18 57 36.5 113t35.5 113l106 324h52q-57 -174 -113.5 -344.5t-113.5 -344.5h-56l-225 689h52l106 -328z"/>
<glyph glyph-name="W" horiz-adv-x="838" unicode="W" d="M538 315l66 -250h2l64 251l97 373h51q-47 -174 -92.5 -344.5t-91.5 -344.5h-59l-96 362l-64 245l-88 -333l-74 -274h-58l-185 689h52l96 -372q16 -63 32 -126.5t33 -126.5h1l67 254l98 371h51z"/>
<glyph glyph-name="X" horiz-adv-x="501" unicode="X" d="M433 0l-183 311l-183 -311h-56l213 354l-198 335h56l168 -293l168 293h56l-198 -335l213 -354h-56z"/>
<glyph glyph-name="Y" horiz-adv-x="490" unicode="Y" d="M269 0h-48v259q-52 109 -104 215t-105 215h53l78 -162l75 -160q8 -14 14.5 -27l13.5 -27l101 216l77 160h51q-51 -108 -102.5 -214.5t-103.5 -213.5v-261z"/>
<glyph glyph-name="Z" horiz-adv-x="516" unicode="Z" d="M478 646l-380 -603h379v-43h-437v42l381 603h-365v44h422v-43z"/>
<glyph glyph-name="bracketleft" horiz-adv-x="234" unicode="[" d="M76 -109v806h142v-35h-99v-737h99v-34h-142z"/>
<glyph glyph-name="backslash" horiz-adv-x="292" unicode="\" d="M-4 725h36l252 -767h-36z"/>
<glyph glyph-name="bracketright" horiz-adv-x="234" unicode="]" d="M35 -109v34h98v737h-98v35h141v-806h-141z"/>
<glyph glyph-name="asciicircum" horiz-adv-x="467" unicode="^" d="M45 333l171 360h36l169 -359h-41l-147 316q-11 -27 -31 -69.5t-41.5 -88.5t-41.5 -89t-32 -70h-42z"/>
<glyph glyph-name="underscore" horiz-adv-x="493" unicode="_" d="M0 -107v37h493v-37h-493z"/>
<glyph glyph-name="grave" horiz-adv-x="482" unicode="`" d="M305 563l-99 147l48 19l79 -154z"/>
<glyph glyph-name="a" horiz-adv-x="466" unicode="a" d="M214 235q-20 0 -43.5 -3t-44 -13.5t-34 -31t-13.5 -54.5q0 -26 9 -44.5t24.5 -30.5t36 -18t43.5 -6q22 0 45.5 6.5t47.5 16.5t47 22.5t43 24.5v131h-161zM375 61h-1q-36 -23 -64.5 -36t-51 -20t-40.5 -9t-32 -2q-69 0 -111.5 35t-42.5 104q0 39 16 66t40 43.5t53 24 t56 7.5h178v49q0 132 -139 132q-35 0 -72 -10t-75 -36l-24 36q42 28 84 39.5t90 11.5q51 0 85.5 -11.5t55.5 -33.5t30 -52.5t9 -68.5v-330h-36z"/>
<glyph glyph-name="b" horiz-adv-x="480" unicode="b" d="M394 318q0 73 -28 104t-85 31q-17 0 -38.5 -6t-45.5 -16.5t-49.5 -25t-49.5 -30.5v-272q48 -32 98 -49.5t83 -17.5q56 0 85.5 33.5t29.5 103.5v145zM439 161q0 -84 -44 -125.5t-112 -41.5q-14 0 -30.5 1.5t-38.5 7.5t-50.5 18.5t-65.5 34.5l-8 -56h-37v715h45v-292 q40 25 69.5 40t51 22.5t38 9.5t30.5 2q74 0 113 -41.5t39 -126.5v-168z"/>
<glyph glyph-name="c" horiz-adv-x="410" unicode="c" d="M239 498q38 0 78.5 -10.5t70.5 -36.5l-28 -36q-29 23 -60.5 32t-56.5 9q-28 0 -54.5 -8t-47.5 -25.5t-33.5 -45.5t-12.5 -68v-125q0 -39 12.5 -67t33.5 -46t47.5 -26t53.5 -8q24 0 59 8.5t59 27.5l27 -34q-31 -23 -70 -33.5t-77 -10.5q-44 0 -79.5 13t-60.5 37t-38 56.5 t-13 71.5v148q0 40 14 72.5t39.5 55.5t60 36t76.5 13z"/>
<glyph glyph-name="d" horiz-adv-x="480" unicode="d" d="M387 405q-53 26 -93 38t-72 12q-132 0 -132 -140v-144q0 -73 29.5 -104t83.5 -31q34 0 84 20.5t100 55.5v293zM395 1l-8 64q-36 -23 -64 -36.5t-50.5 -21.5t-40 -10.5t-31.5 -2.5q-72 0 -113.5 40.5t-41.5 126.5v165q0 83 46.5 127t125.5 44q30 0 69.5 -8t99.5 -37v263 h44v-714h-36z"/>
<glyph glyph-name="e" horiz-adv-x="466" unicode="e" d="M382 308q0 40 -12.5 68t-32.5 46t-45 26t-51 8q-27 0 -53.5 -8.5t-47 -26.5t-33.5 -46.5t-13 -67.5v-41h288v42zM94 227v-46q0 -41 13 -69t34 -45.5t48 -25.5t56 -8q41 0 74 14t59 39l28 -32q-31 -31 -72 -45.5t-91 -14.5q-42 0 -77.5 11.5t-61.5 34t-40.5 56t-14.5 77.5 v139q0 42 14 76t39.5 58.5t61 37.5t77.5 13q41 0 75 -13.5t59 -37.5t38.5 -58t13.5 -74v-87h-333z"/>
<glyph glyph-name="f" horiz-adv-x="282" unicode="f" d="M136 450v-450h-45v450h-60v42h60v109q0 60 33 89t81 29h72v-41h-63q-24 0 -39 -7t-24 -18.5t-12 -27.5t-3 -34v-99h141v-42h-141z"/>
<glyph glyph-name="g" horiz-adv-x="479" unicode="g" d="M385 383q-51 35 -97.5 52.5t-83.5 17.5q-54 0 -84.5 -31t-30.5 -105v-144q0 -72 27.5 -104t83.5 -32q37 0 86.5 21.5t98.5 54.5v270zM200 496q14 0 31 -1.5t39.5 -8t50.5 -19.5t64 -35l8 59h37v-530q0 -42 -15 -74t-41 -54t-63 -33t-80 -11q-40 0 -83.5 11.5t-75.5 37.5 l29 35q24 -20 61.5 -31t69.5 -11q31 0 59 7.5t49 24.5t33 44.5t12 68.5v91q-35 -23 -63 -37t-50.5 -22t-41 -11t-33.5 -3h-6q-67 0 -107 41.5t-40 125.5v168q0 84 44 125.5t112 41.5z"/>
<glyph glyph-name="h" horiz-adv-x="479" unicode="h" d="M285 497q150 0 150 -168v-329h-45v318q0 73 -28 104t-84 31q-18 0 -40.5 -6t-46.5 -16.5t-49 -23.5t-48 -28v-379h-45v716h45v-293q69 44 114.5 59t76.5 15z"/>
<glyph glyph-name="i" horiz-adv-x="185" unicode="i" d="M70 0v491h44v-491h-44zM125 653q0 -14 -9.5 -23.5t-23.5 -9.5q-13 0 -22.5 9.5t-9.5 23.5t9.5 23t22.5 9q14 0 23.5 -9t9.5 -23z"/>
<glyph glyph-name="j" horiz-adv-x="220" unicode="j" d="M94 491h45v-578q0 -64 -27 -93t-84 -29h-37v41h31q40 0 56 19t16 70v570zM150 653q0 -14 -9.5 -23.5t-23.5 -9.5q-13 0 -22.5 9.5t-9.5 23.5t9.5 23t22.5 9q14 0 23.5 -9t9.5 -23z"/>
<glyph glyph-name="k" horiz-adv-x="449" unicode="k" d="M49 0v716h44v-411h114q30 0 58.5 13t48.5 55l57 120h49l-57 -126q-13 -28 -30 -48.5t-49 -32.5q19 -3 33 -12.5t23.5 -22.5t16 -28.5t11.5 -31.5l66 -191h-49l-60 171q-10 29 -20 46.5t-22.5 27.5t-29 13t-40.5 3h-120v-261h-44z"/>
<glyph glyph-name="l" horiz-adv-x="250" unicode="l" d="M135 113q0 -47 16.5 -60.5t50.5 -13.5h10l2 -41q-9 -2 -16.5 -2h-15.5q-51 0 -71 27.5t-20 82.5v610h44v-603z"/>
<glyph glyph-name="m" horiz-adv-x="739" unicode="m" d="M258 497q28 0 48.5 -7t35 -18.5t24 -27t15.5 -31.5q33 28 59 44.5t47 25.5t37.5 11.5t29.5 2.5q71 0 106.5 -42t35.5 -121v-334h-45v320q0 63 -22.5 98t-80.5 35q-35 0 -74 -20.5t-85 -58.5q2 -14 3 -24t1 -21v-329h-45v321q0 62 -21.5 97.5t-77.5 35.5q-29 0 -67 -16.5 t-92 -58.5v-379h-45v491h37l8 -68q29 22 53 36.5t44 23t37 11.5t34 3z"/>
<glyph glyph-name="n" horiz-adv-x="480" unicode="n" d="M281 497q73 0 113 -41.5t40 -126.5v-329h-45v318q0 73 -30 104t-84 31h-3q-36 0 -83 -21.5t-96 -54.5v-377h-45v491h37l8 -68q35 21 62.5 35.5t49.5 23t40.5 12t35.5 3.5z"/>
<glyph glyph-name="o" horiz-adv-x="479" unicode="o" d="M389 308q0 40 -13.5 68t-34.5 45.5t-47.5 25.5t-52.5 8q-27 0 -54 -8t-48 -25.5t-34.5 -45.5t-13.5 -68v-125q0 -41 12.5 -69t33 -45.5t47.5 -25.5t57 -8t56.5 8.5t47 26.5t32.5 46t12 67v125zM433 173q0 -84 -53 -131.5t-141 -47.5q-43 0 -78.5 12.5t-61 36t-39.5 56 t-14 73.5v150q0 40 15.5 72.5t42 55t61.5 35t75 12.5q41 0 76.5 -12.5t61.5 -35t40.5 -55t14.5 -72.5v-149z"/>
<glyph glyph-name="p" horiz-adv-x="480" unicode="p" d="M94 85q55 -28 94 -39t71 -11q66 0 99 33.5t33 105.5v145q0 73 -30 104t-83 31q-34 0 -84 -21t-100 -55v-293zM86 489l8 -64q36 22 64 36.5t50.5 22t40 10.5t31.5 3q72 0 113.5 -41t41.5 -126v-166q0 -83 -45.5 -127t-126.5 -44q-30 0 -69.5 8t-99.5 38v-242h-44v692h36z "/>
<glyph glyph-name="q" horiz-adv-x="478" unicode="q" d="M386 387q-51 34 -100 51t-82 17q-56 0 -85.5 -33.5t-29.5 -103.5v-145q0 -71 28 -103.5t82 -32.5h3q35 0 83.5 19t100.5 57v274zM386 -204v269q-36 -24 -65 -38t-51.5 -21.5t-40 -9.5t-31.5 -2q-72 0 -112.5 41t-40.5 126v169q0 84 43.5 125.5t111.5 41.5q14 0 31.5 -2 t39.5 -8.5t50.5 -19t64.5 -33.5l8 56h36v-694h-44z"/>
<glyph glyph-name="r" horiz-adv-x="296" unicode="r" d="M293 445q-67 -7 -111 -29t-69 -39v-377h-46v491h39l7 -73h1q15 13 35.5 26.5t44.5 25t49.5 18.5t49.5 9v-52z"/>
<glyph glyph-name="s" horiz-adv-x="439" unicode="s" d="M227 31q22 0 46 5t43 17t31.5 31.5t12.5 48.5q0 42 -33 63.5t-111 34.5q-30 5 -60 12.5t-54.5 21t-40 36t-15.5 57.5q0 61 45.5 100t123.5 39q51 0 91 -9.5t74 -32.5l-23 -34q-62 37 -139 37q-58 0 -93 -27t-35 -73q0 -21 10.5 -36t29 -25t44 -16.5t55.5 -11.5 t61.5 -12.5t57 -22t41.5 -39t16 -64.5q0 -60 -47 -98.5t-133 -38.5q-48 0 -95 10t-92 42l24 35q37 -26 77 -38t88 -12z"/>
<glyph glyph-name="t" horiz-adv-x="334" unicode="t" d="M318 5q-23 -7 -46.5 -8.5t-35.5 -1.5q-73 0 -101.5 33.5t-28.5 109.5v312h-75v42h76l12 116h32v-116h146v-42h-146v-299q0 -63 20.5 -88.5t70.5 -25.5q13 0 31 1.5t38 5.5z"/>
<glyph glyph-name="u" horiz-adv-x="482" unicode="u" d="M395 0l-8 68q-34 -21 -60.5 -35t-48 -23t-39.5 -12.5t-35 -3.5q-76 0 -117 41.5t-41 126.5v329h45v-318q0 -73 31 -104.5t86 -31.5q36 0 83 21.5t96 56.5v376h46v-491h-38z"/>
<glyph glyph-name="v" horiz-adv-x="431" unicode="v" d="M213 59q3 8 7 18.5t13 35.5t25 69.5t42 121.5q17 47 34 93.5t32 93.5h50q-45 -123 -89.5 -246t-89.5 -245h-48q-46 122 -89 245t-88 246h49l66 -186q22 -62 42.5 -122.5t43.5 -123.5z"/>
<glyph glyph-name="w" horiz-adv-x="671" unicode="w" d="M425 256l65 -193h1q18 60 36 120.5t35 121.5l53 186h46l-144 -491h-48l-77 225l-56 163h-1l-57 -170l-74 -218h-48l-147 491h47q14 -45 27 -91t26 -91l72 -246h1q23 67 45.5 134t45.5 135q11 29 20 57.5t19 57.5h48z"/>
<glyph glyph-name="x" horiz-adv-x="401" unicode="x" d="M333 0l-135 214l-135 -214h-55l164 251l-156 240h55l127 -203l129 203h55l-158 -239l165 -252h-56z"/>
<glyph glyph-name="y" horiz-adv-x="428" unicode="y" d="M116 -198l72 200l-28 29l-153 459h47q20 -57 38 -114t38 -115l75 -222h1l81 222q21 58 42 115t41 114h47q-63 -174 -126.5 -344.5t-126.5 -343.5h-48z"/>
<glyph glyph-name="z" horiz-adv-x="420" unicode="z" d="M30 0v37l297 415h-281v39h334v-37l-295 -414h295v-40h-350z"/>
<glyph glyph-name="braceleft" horiz-adv-x="234" unicode="{" d="M180 -109q-37 0 -58.5 27t-21.5 75v140q0 65 -14 101.5t-57 47.5v25q22 6 36.5 21t22 36t10.5 45.5t3 48.5v135q0 47 21 75t58 28h47v-29h-34q-18 0 -29 -9t-16.5 -23t-7.5 -30.5t-2 -31.5v-134q0 -31 -6.5 -55.5t-16 -42.5t-21.5 -29.5t-23 -15.5v-1q26 -8 46.5 -43.5 t20.5 -93.5v-144q0 -15 2 -31.5t7.5 -30.5t16.5 -23t29 -9h34v-29h-47z"/>
<glyph glyph-name="bar" horiz-adv-x="174" unicode="|" d="M72 -162v878h34v-878h-34z"/>
<glyph glyph-name="braceright" horiz-adv-x="234" unicode="}" d="M226 282q-43 -11 -57 -47.5t-14 -101.5v-140q0 -46 -21.5 -74t-58.5 -28h-47v29h34q18 0 29 9t16.5 23t7.5 30.5t2 31.5v144q0 58 20.5 93.5t46.5 43.5v1q-12 4 -23.5 15.5t-21.5 29.5t-16 42.5t-6 55.5v134q0 15 -1.5 31.5t-6.5 30.5t-16.5 23t-30.5 9h-34v28h46 q40 0 60 -28.5t20 -73.5v-135q0 -24 3 -48.5t10.5 -45.5t21.5 -36t37 -21v-25z"/>
<glyph glyph-name="asciitilde" d="M450 295q-20 -31 -44.5 -50t-63.5 -19q-26 0 -54 9.5t-55 20.5t-53 20.5t-48 9.5q-26 0 -44 -13.5t-36 -33.5l-29 23q21 30 49.5 47.5t60.5 17.5q27 0 53.5 -9.5t52.5 -21t51.5 -21t51.5 -9.5q27 0 43 13t34 38z" unicode="~"/>
<glyph glyph-name="exclamdown" horiz-adv-x="211" unicode="¡" d="M126 341q0 -63 1 -132t1.5 -139t1.5 -139t1 -133h-48q0 64 1 133t1.5 139t1.5 139t1 132h38zM144 458q0 -14 -10.5 -25t-27.5 -11t-27.5 11t-10.5 25q0 17 10.5 27.5t27.5 10.5t27.5 -10.5t10.5 -27.5z"/>
<glyph glyph-name="cent" horiz-adv-x="443" unicode="¢" d="M95 184q0 -36 10.5 -62.5t28.5 -44.5t41.5 -27.5t48.5 -12.5v418q-25 -2 -48.5 -11.5t-41.5 -27t-28.5 -44t-10.5 -63.5v-125zM224 -4q-41 2 -73.5 16t-55 37t-34.5 54.5t-12 69.5v148q0 38 13 69.5t36 54.5t55 36.5t71 15.5v111h27v-110q36 -2 72.5 -12.5t64.5 -34.5 l-28 -36q-26 21 -55.5 30t-53.5 11v-419q24 2 55.5 10.5t53.5 25.5l27 -34q-29 -22 -64.5 -32t-71.5 -12v-109h-27v110z"/>
<glyph glyph-name="sterling" d="M38 36q39 52 62 115.5t23 144.5v5h-86v35h79q-3 19 -6.5 31.5t-7.5 23.5q-11 33 -23 67.5t-12 69.5q0 33 10.5 63.5t32.5 54t55 37.5t77 14q64 0 107 -21.5t73 -64.5l-34 -26q-28 38 -65 55t-83 17q-19 0 -41 -6t-41 -20.5t-32 -39.5t-13 -63q0 -17 4.5 -37t11.5 -40 l17.5 -52.5t15.5 -62.5h150v-35h-147q-1 -70 -16 -135t-60 -126h347v-40h-398v36z" unicode="£"/>
<glyph glyph-name="currency" d="M104 324q0 -28 10 -52.5t28 -42.5t42 -28.5t52 -10.5t52.5 10.5t42.5 28.5t28.5 42.5t10.5 52.5t-10 52.5t-28 42.5t-42.5 28.5t-52.5 10.5t-52.5 -10.5t-42.5 -28.5t-28 -42.5t-10 -52.5zM43 490q5 6 13 14l14 14l58 -58q50 38 109 38q28 0 54.5 -9.5t51.5 -26.5l58 58 q5 -6 12.5 -13.5l14.5 -14.5l-58 -58q42 -51 42 -110q0 -29 -10 -56.5t-28 -52.5l58 -57q-6 -8 -13.5 -15t-14.5 -14l-58 58q-48 -38 -109 -40q-61 1 -111 43l-58 -58q-5 6 -14 14.5t-14 13.5l58 58q-35 49 -35 106v5q0 26 9.5 52t28.5 51z" unicode="¤"/>
<glyph glyph-name="yen" d="M43 194h170v65l-17 39h-154v33h140l-158 358h53l159 -374q43 93 80.5 186.5t79.5 187.5h51q-38 -90 -77.5 -179t-78.5 -179h147v-33h-161l-16 -37v-67h177v-32h-177v-162h-48v162h-170v32z" unicode="¥"/>
<glyph glyph-name="brokenbar" horiz-adv-x="174" unicode="¦" d="M106 249v-411h-34v411h34zM72 305v411h34v-411h-34z"/>
<glyph glyph-name="section" horiz-adv-x="440" unicode="§" d="M88 357q0 -28 12 -46t29.5 -30.5t38 -20.5t38.5 -17q26 -11 52.5 -22.5t46.5 -24.5q26 17 37 40.5t11 49.5q0 36 -19.5 60.5t-50 42.5t-68 32t-73.5 28q-21 -17 -37.5 -43t-16.5 -49zM80 10q27 -21 58.5 -32.5t64.5 -11.5q27 0 51 6t42 19t28.5 33t10.5 48 q0 49 -36.5 76.5t-98.5 51.5q-39 15 -67.5 30t-47.5 33t-28 40t-9 51t15.5 59.5t47.5 56.5q-17 16 -30 40t-13 51q0 66 43 104t112 38q40 0 76.5 -11t62.5 -31q-6 -9 -11.5 -18t-10.5 -18q-52 40 -119 40q-47 0 -79 -25.5t-32 -70.5q0 -63 73 -94q34 -14 71 -30t68.5 -37 t52 -50t20.5 -69q0 -34 -13 -64t-42 -54q17 -20 26.5 -43.5t9.5 -52.5q0 -67 -46 -107t-125 -40q-41 0 -80.5 14.5t-65.5 36.5z"/>
<glyph glyph-name="dieresis" horiz-adv-x="466" unicode="¨" d="M177 650q0 -13 -9.5 -22.5t-23.5 -9.5q-12 0 -21.5 9.5t-9.5 22.5q0 14 9.5 23t21.5 9q14 0 23.5 -9t9.5 -23zM345 650q0 -13 -9 -22.5t-23 -9.5q-13 0 -22.5 9.5t-9.5 22.5q0 14 9.5 23t22.5 9q14 0 23 -9t9 -23z"/>
<glyph glyph-name="copyright" horiz-adv-x="780" unicode="©" d="M399 552q70 0 121 -35l-20 -30q-23 16 -48.5 23.5t-52.5 7.5q-24 0 -46 -7t-39.5 -22t-28 -39t-10.5 -57v-109q0 -33 10.5 -57t28 -39.5t39 -23t44.5 -7.5q57 0 104 33l21 -29q-20 -14 -51.5 -25.5t-71.5 -11.5q-75 0 -117.5 43t-42.5 111v121q0 34 11.5 62t32.5 48 t50.5 31.5t65.5 11.5zM393 659q-64 0 -119.5 -24.5t-96.5 -67.5t-64.5 -101t-23.5 -125q0 -66 23.5 -124t64.5 -101t96.5 -67.5t119.5 -24.5q65 0 121 24.5t97.5 67.5t65 101t23.5 124q0 67 -23.5 125t-65 101t-97.5 67.5t-121 24.5zM393 -10q-73 0 -135.5 26.5t-108 74 t-71.5 111.5t-26 139t26 139.5t72 112t108.5 74t134.5 26.5q73 0 135.5 -26.5t108.5 -74t72.5 -112t26.5 -139.5t-26.5 -139t-72.5 -111.5t-108.5 -74t-135.5 -26.5z"/>
<glyph glyph-name="ordfeminine" horiz-adv-x="321" unicode="ª" d="M253 430h-105q-13 0 -28.5 -2t-28.5 -8.5t-22 -18.5t-9 -33q0 -30 22 -44.5t51 -14.5q28 0 61 14t59 30v77zM254 317q-42 -27 -72 -35t-53 -8q-49 0 -79 24.5t-30 69.5q0 27 11 45t28.5 29t38 16t39.5 5h116v28q0 46 -24.5 63t-65.5 17q-25 0 -49 -6.5t-52 -24.5l-20 31 q31 19 59.5 27t62.5 8q68 0 98.5 -29.5t30.5 -81.5v-216h-34z"/>
<glyph glyph-name="guillemotleft" horiz-adv-x="407" unicode="«" d="M178 46l-116 173l118 172h44l-115 -172l115 -173h-46zM314 46l-117 173l118 172h44l-115 -172l115 -173h-45z"/>
<glyph glyph-name="logicalnot" d="M442 67h-36v194h-376v38h413z" unicode="¬"/>
<glyph glyph-name="sfthyphen" horiz-adv-x="370" unicode="­" d="M53 245v43h264v-43h-264z"/>
<glyph glyph-name="registered" horiz-adv-x="546" unicode="®" d="M225 591v-88h66q23 0 37.5 11.5t14.5 34.5q0 22 -15.5 32t-35.5 10h-67zM286 479h-61v-109h-26v244h97q32 0 52.5 -17.5t20.5 -47.5q0 -26 -15 -44t-41 -23l59 -112h-30zM453 492q0 40 -13.5 74t-37.5 59t-56.5 39.5t-70.5 14.5t-70.5 -14.5t-56.5 -39.5t-37.5 -59 t-13.5 -74t13.5 -74t37.5 -59t56.5 -39.5t70.5 -14.5t70.5 14.5t56.5 39.5t37.5 59t13.5 74zM479 492q0 -45 -15.5 -83.5t-43 -66.5t-65 -44t-80.5 -16t-80 16t-64.5 44t-43.5 66.5t-16 83.5t16 84t43.5 67t64.5 44t80 16t80.5 -16t65 -44t43 -67t15.5 -84z"/>
<glyph glyph-name="macron" horiz-adv-x="474" unicode="¯" d="M129 593v41h255v-41h-255z"/>
<glyph glyph-name="degree" horiz-adv-x="361" unicode="°" d="M269 577q0 38 -25.5 64t-62.5 26q-38 0 -63 -26t-25 -64q0 -37 25 -63t63 -26q37 0 62.5 25t25.5 64zM304 577q0 -26 -9.5 -48t-26 -38.5t-39 -26t-48.5 -9.5t-48.5 9.5t-39 26t-26 38.5t-9.5 48q0 25 10 47.5t26.5 39t39 26t47.5 9.5q26 0 48.5 -9.5t39 -26t26 -39 t9.5 -47.5z"/>
<glyph glyph-name="plusminus" d="M31 0v37h411v-37h-411zM255 271v-189h-37v189h-187v37h187v187h37v-187h186v-37h-186z" unicode="±"/>
<glyph glyph-name="twosuperior" horiz-adv-x="308" unicode="²" d="M286 679q0 -38 -28.5 -70.5t-69.5 -57.5q-19 -11 -41 -25t-40.5 -31t-31 -37.5t-12.5 -43.5v-10h223v-35h-265v40q0 29 11.5 52.5t30.5 43.5t43 36.5t49 31.5q17 10 33.5 21.5t29 24.5t20 27.5t7.5 30.5q0 19 -8 32.5t-21.5 22t-31 12.5t-35.5 4q-30 0 -56 -9.5 t-45 -23.5l-20 30q22 16 53.5 27.5t66.5 11.5q26 0 51 -5.5t44.5 -18t31 -32.5t11.5 -49z"/>
<glyph glyph-name="threesuperior" horiz-adv-x="308" unicode="³" d="M141 783q23 0 45.5 -6t40.5 -19t29 -33t11 -48q0 -29 -16 -56t-51 -39q40 -12 55 -40t15 -57q0 -28 -11 -50.5t-30 -38t-44.5 -24t-53.5 -8.5q-40 0 -70.5 12t-51.5 29q1 1 4 5.5t7 9t7.5 8.5t4.5 6q18 -17 44 -25.5t54 -8.5q42 0 71 22t29 61t-23.5 59t-55.5 20h-53v36 h53q11 0 24 4.5t24.5 14.5t19.5 24.5t8 35.5q0 19 -8.5 32.5t-22 22t-29 12.5t-30.5 4q-26 0 -52 -9t-46 -24l-21 29q27 18 57.5 28.5t65.5 10.5z"/>
<glyph glyph-name="acute" horiz-adv-x="482" unicode="´" d="M206 575l78 154l49 -19l-100 -147z"/>
<glyph glyph-name="mu" horiz-adv-x="486" unicode="µ" d="M395 0l-4 67q-34 -21 -60.5 -35.5t-48.5 -22.5t-40 -11.5t-35 -3.5q-78 0 -113 47v-244h-44q-1 174 -1 348v346h45v-317q0 -73 31 -104.5t87 -31.5q36 0 82 21.5t97 56.5v375h45v-491h-41z"/>
<glyph glyph-name="mu" horiz-adv-x="486" unicode="μ" d="M395 0l-4 67q-34 -21 -60.5 -35.5t-48.5 -22.5t-40 -11.5t-35 -3.5q-78 0 -113 47v-244h-44q-1 174 -1 348v346h45v-317q0 -73 31 -104.5t87 -31.5q36 0 82 21.5t97 56.5v375h45v-491h-41z"/>
<glyph glyph-name="paragraph" horiz-adv-x="459" unicode="¶" d="M215 377q-38 0 -70 13.5t-55 37t-36 55.5t-13 68q0 35 13.5 66.5t36.5 55.5t55 38t69 14h90v-348h-90zM397 67q0 -42 -6.5 -74t-25 -54.5t-52.5 -36.5t-89 -20l-4 41q51 6 78.5 19.5t40 34t15 46t2.5 55.5v647h41v-658z"/>
<glyph glyph-name="periodcentered" horiz-adv-x="184" unicode="·" d="M96 312q17 0 30.5 -12.5t13.5 -30.5t-12.5 -31t-31.5 -13t-32 13t-13 31t13 30.5t32 12.5z"/>
<glyph glyph-name="cedilla" horiz-adv-x="414" unicode="¸" d="M231 -163q21 0 41.5 9t20.5 35q0 13 -6.5 22.5t-17 15t-23.5 7.5t-26 0l-20 10q7 20 13 40t12 39q8 0 15 -0.5t14 -0.5l-19 -58q27 0 45 -8t29 -19.5t15.5 -24.5t4.5 -24t-5 -23.5t-16.5 -23.5t-30 -18t-45.5 -7q-11 0 -29.5 2.5t-43.5 10.5l10 26q17 -5 33 -7.5t29 -2.5 z"/>
<glyph glyph-name="onesuperior" horiz-adv-x="258" unicode="¹" d="M132 369v363l-70 -50l-23 30l96 68h36v-411h-39z"/>
<glyph glyph-name="ordmasculine" horiz-adv-x="331" unicode="º" d="M263 477q0 25 -8.5 43t-22.5 29t-31.5 16.5t-34.5 5.5q-18 0 -35.5 -5.5t-31.5 -16.5t-22.5 -29t-8.5 -43v-73q0 -25 8 -42.5t21.5 -29t31.5 -17t37 -5.5q39 0 68 23t29 71v73zM301 398q0 -56 -37 -90t-99 -34q-61 0 -98.5 34t-37.5 88v91q0 27 10.5 48.5t29.5 37.5 t43.5 24.5t53.5 8.5q59 0 97 -32.5t38 -86.5v-89z"/>
<glyph glyph-name="guillemotright" horiz-adv-x="407" unicode="»" d="M198 46l115 173l-115 172h44l118 -172l-117 -173h-45zM63 46l114 173l-114 172h44l118 -172l-117 -173h-45z"/>
<glyph glyph-name="onequarter" horiz-adv-x="760" unicode="¼" d="M628 65v-65h-37v65h-199v31q12 26 33 69t44 89t44 88.5t33 68.5h42l-152 -311h155v127h37v-127h43v-35h-43zM167 -17h-39l424 731h40zM182 279v363l-70 -50l-23 30l96 68h36v-411h-39z"/>
<glyph glyph-name="onehalf" horiz-adv-x="760" unicode="½" d="M692 310q0 -38 -28.5 -70.5t-69.5 -57.5q-19 -11 -41 -24.5t-40.5 -31t-31 -37.5t-12.5 -43v-11h223v-35h-265v40q0 29 11.5 52.5t30.5 43.5t43 36.5t49 31.5q17 10 33.5 21.5t29 24.5t20 27.5t7.5 30.5q0 19 -8 32.5t-21.5 22t-31 12.5t-35.5 4q-30 0 -56 -9.5 t-45 -23.5l-20 30q22 16 53.5 27.5t66.5 11.5q26 0 51 -5.5t44.5 -18t31 -32.5t11.5 -49zM138 -17h-39l424 731h40zM161 279v363l-70 -50l-23 30l96 68h36v-411h-39z"/>
<glyph glyph-name="threequarters" horiz-adv-x="760" unicode="¾" d="M208 -17h-39l424 731h40zM672 65v-65h-37v65h-199v31q12 26 33 69t44 89t44 88.5t33 68.5h42l-152 -311h155v127h37v-127h43v-35h-43zM176 693q23 0 45.5 -6t40.5 -19t29 -33t11 -48q0 -29 -16 -56t-51 -39q40 -12 55 -40t15 -57q0 -28 -11 -50.5t-30 -38t-44.5 -24 t-53.5 -8.5q-40 0 -70.5 12t-51.5 29q1 1 4 5.5t7 9t7.5 8.5t4.5 6q18 -17 44 -25.5t54 -8.5q42 0 71 22t29 61t-23.5 59t-55.5 20h-53v36h53q11 0 24 4.5t24.5 14.5t19.5 24.5t8 35.5q0 19 -8.5 32.5t-22 22t-29 12.5t-30.5 4q-26 0 -52 -9t-46 -24l-21 29q27 18 57.5 28.5 t65.5 10.5z"/>
<glyph glyph-name="questiondown" horiz-adv-x="432" unicode="¿" d="M251 458q0 -14 -10.5 -25t-27.5 -11t-28 11t-11 25q0 17 11 27.5t28 10.5t27.5 -10.5t10.5 -27.5zM225 -204q-42 0 -75.5 12t-56.5 34t-35 51.5t-12 64.5q0 42 22 80.5t51 73.5q32 38 53.5 76.5t21.5 81.5v64h42v-64q0 -29 -7 -52.5t-18 -44t-25.5 -39.5t-29.5 -38 q-23 -29 -44 -62t-21 -73q0 -55 36.5 -90t103.5 -35q38 0 74 11t65 30l22 -35q-41 -25 -81 -35.5t-86 -10.5z"/>
<glyph glyph-name="Agrave" horiz-adv-x="568" unicode="À" d="M300 729l-151 93l35 37l136 -108zM284 630q-4 -12 -14.5 -44.5t-25 -75t-30.5 -90.5t-30.5 -90.5t-25.5 -75t-15 -44.5h284q-4 12 -14.5 44.5t-25 75t-31 90.5t-31 91t-25.5 75t-15 44h-1zM501 0q-14 42 -29 83t-30 83h-315q-14 -42 -28 -83t-28 -83h-51l238 689h54 l240 -689h-51z"/>
<glyph glyph-name="Aacute" horiz-adv-x="568" unicode="Á" d="M250 751l136 108l35 -37l-151 -93zM284 630q-4 -12 -14.5 -44.5t-25 -75t-30.5 -90.5t-30.5 -90.5t-25.5 -75t-15 -44.5h284q-4 12 -14.5 44.5t-25 75t-31 90.5t-31 91t-25.5 75t-15 44h-1zM501 0q-14 42 -29 83t-30 83h-315q-14 -42 -28 -83t-28 -83h-51l238 689h54 l240 -689h-51z"/>
<glyph glyph-name="Acircumflex" horiz-adv-x="568" unicode="Â" d="M287 814l-130 -84l-18 21l131 109h37l127 -108l-18 -21zM284 630q-4 -12 -14.5 -44.5t-25 -75t-30.5 -90.5t-30.5 -90.5t-25.5 -75t-15 -44.5h284q-4 12 -14.5 44.5t-25 75t-31 90.5t-31 91t-25.5 75t-15 44h-1zM501 0q-14 42 -29 83t-30 83h-315q-14 -42 -28 -83 t-28 -83h-51l238 689h54l240 -689h-51z"/>
<glyph glyph-name="Atilde" horiz-adv-x="568" unicode="Ã" d="M226 838q16 0 33 -6.5t33.5 -14.5t32 -14.5t27.5 -6.5q16 0 28.5 9.5t27.5 31.5l30 -17q-19 -35 -40 -50t-45 -15q-15 0 -31 6t-32.5 13.5t-32.5 14t-30 6.5q-19 0 -33 -9.5t-30 -29.5l-30 18q19 31 42.5 47.5t49.5 16.5zM284 630q-4 -12 -14.5 -44.5t-25 -75 t-30.5 -90.5t-30.5 -90.5t-25.5 -75t-15 -44.5h284q-4 12 -14.5 44.5t-25 75t-31 90.5t-31 91t-25.5 75t-15 44h-1zM501 0q-14 42 -29 83t-30 83h-315q-14 -42 -28 -83t-28 -83h-51l238 689h54l240 -689h-51z"/>
<glyph glyph-name="Adieresis" horiz-adv-x="568" unicode="Ä" d="M235 785q0 -14 -9.5 -23t-23.5 -9q-12 0 -21.5 9t-9.5 23q0 13 9.5 22.5t21.5 9.5q14 0 23.5 -9.5t9.5 -22.5zM403 785q0 -14 -9 -23t-23 -9q-13 0 -22.5 9t-9.5 23q0 13 9.5 22.5t22.5 9.5q14 0 23 -9.5t9 -22.5zM284 630q-4 -12 -14.5 -44.5t-25 -75t-30.5 -90.5 t-30.5 -90.5t-25.5 -75t-15 -44.5h284q-4 12 -14.5 44.5t-25 75t-31 90.5t-31 91t-25.5 75t-15 44h-1zM501 0q-14 42 -29 83t-30 83h-315q-14 -42 -28 -83t-28 -83h-51l238 689h54l240 -689h-51z"/>
<glyph glyph-name="Aring" horiz-adv-x="568" unicode="Å" d="M348 811q0 26 -18 44.5t-45 18.5q-26 0 -44.5 -18.5t-18.5 -44.5t18.5 -44.5t44.5 -18.5q27 0 45 18.5t18 44.5zM377 811q0 -19 -7 -35.5t-19.5 -29t-29.5 -19.5t-36 -7q-38 0 -65 26.5t-27 64.5q0 19 7.5 35.5t20 29t29 19.5t35.5 7t36 -7t29.5 -19.5t19.5 -29t7 -35.5z M284 630q-4 -12 -14.5 -44.5t-25 -75t-30.5 -90.5t-30.5 -90.5t-25.5 -75t-15 -44.5h284q-4 12 -14.5 44.5t-25 75t-31 90.5t-31 91t-25.5 75t-15 44h-1zM501 0q-14 42 -29 83t-30 83h-315q-14 -42 -28 -83t-28 -83h-51l238 689h54l240 -689h-51z"/>
<glyph glyph-name="AE" horiz-adv-x="920" unicode="Æ" d="M199 226h264v417zM463 0v184h-291l-117 -184h-54l438 689h467v-44h-395v-274h339v-43h-339v-285h395v-43h-443z"/>
<glyph glyph-name="Ccedilla" horiz-adv-x="502" unicode="Ç" d="M276 -163q21 0 41.5 9t20.5 35q0 13 -6.5 22.5t-17 15t-23.5 7.5t-26 0l-20 10l18 59q-49 4 -88 22.5t-66.5 48.5t-42.5 70.5t-15 87.5v244q0 50 17.5 92t49.5 72t76.5 47t98.5 17q52 0 95.5 -12t82.5 -39l-26 -39q-32 23 -71 34.5t-81 11.5q-36 0 -71 -11t-62.5 -34.5 t-44 -60t-16.5 -87.5v-227q0 -51 17 -88t44 -61t61 -35.5t69 -11.5q88 0 157 49l25 -37q-27 -20 -73 -37.5t-106 -17.5h-1l-12 -37q27 0 45 -8t29 -19.5t15.5 -24.5t4.5 -24t-5 -23.5t-16.5 -23.5t-30 -18t-45.5 -7q-11 0 -29.5 2.5t-43.5 10.5l10 26q17 -5 33 -7.5t29 -2.5 z"/>
<glyph glyph-name="Egrave" horiz-adv-x="532" unicode="È" d="M306 729l-151 93l35 37l136 -108zM57 0v689h443v-44h-395v-274h340v-43h-340v-285h395v-43h-443z"/>
<glyph glyph-name="Eacute" horiz-adv-x="532" unicode="É" d="M217 751l136 108l35 -37l-151 -93zM57 0v689h443v-44h-395v-274h340v-43h-340v-285h395v-43h-443z"/>
<glyph glyph-name="Ecircumflex" horiz-adv-x="532" unicode="Ê" d="M279 814l-130 -84l-18 21l131 109h37l127 -108l-18 -21zM57 0v689h443v-44h-395v-274h340v-43h-340v-285h395v-43h-443z"/>
<glyph glyph-name="Edieresis" horiz-adv-x="532" unicode="Ë" d="M228 784q0 -13 -9.5 -22.5t-22.5 -9.5t-22.5 9.5t-9.5 22.5q0 14 9.5 23t22.5 9t22.5 -9t9.5 -23zM396 784q0 -13 -9 -22.5t-23 -9.5q-13 0 -22 9.5t-9 22.5q0 14 9 23t22 9q14 0 23 -9t9 -23zM57 0v689h443v-44h-395v-274h340v-43h-340v-285h395v-43h-443z"/>
<glyph glyph-name="Igrave" horiz-adv-x="216" unicode="Ì" d="M120 729l-151 93l35 37l136 -108zM84 0v689h48v-689h-48z"/>
<glyph glyph-name="Iacute" horiz-adv-x="216" unicode="Í" d="M75 751l136 108l35 -37l-151 -93zM84 0v689h48v-689h-48z"/>
<glyph glyph-name="Icircumflex" horiz-adv-x="216" unicode="Î" d="M109 814l-130 -84l-18 21l131 109h37l127 -108l-18 -21zM84 0v689h48v-689h-48z"/>
<glyph glyph-name="Idieresis" horiz-adv-x="216" unicode="Ï" d="M57 785q0 -14 -9.5 -23t-23.5 -9q-12 0 -21.5 9t-9.5 23q0 13 9.5 22.5t21.5 9.5q14 0 23.5 -9.5t9.5 -22.5zM225 785q0 -14 -9 -23t-23 -9q-13 0 -22.5 9t-9.5 23q0 13 9.5 22.5t22.5 9.5q14 0 23 -9.5t9 -22.5zM84 0v689h48v-689h-48z"/>
<glyph glyph-name="Eth" horiz-adv-x="581" unicode="Ð" d="M484 455q0 52 -16 88t-41 58.5t-57 33t-63 10.5h-203v-265h167v-38h-167v-300h191q34 0 67.5 10t60.5 32.5t44 58.5t17 89v223zM6 380h50v309h255q51 0 92.5 -16.5t70 -46.5t44 -71.5t15.5 -91.5v-240q0 -50 -16 -91t-45.5 -70t-71 -45.5t-92.5 -16.5h-252v342h-50v38z "/>
<glyph glyph-name="Ntilde" horiz-adv-x="613" unicode="Ñ" d="M250 835q16 0 33 -6.5t33.5 -14.5t32 -14.5t27.5 -6.5q16 0 28.5 9.5t27.5 31.5l30 -17q-19 -35 -40 -50t-45 -15q-15 0 -31 6t-32.5 13.5t-32.5 14t-30 6.5q-19 0 -33 -9.5t-30 -29.5l-30 18q19 31 42.5 47.5t49.5 16.5zM505 0q-63 95 -125.5 189.5t-126.5 190.5 q-37 56 -73.5 112.5t-75.5 111.5v-604h-48v689h48l256 -386q37 -56 73.5 -111.5t74.5 -110.5v608h48v-689h-51z"/>
<glyph glyph-name="Ograve" horiz-adv-x="587" unicode="Ò" d="M316 729l-151 93l35 37l136 -108zM488 459q0 49 -16 85.5t-43 60.5t-62 35.5t-74 11.5q-40 0 -75.5 -11.5t-61.5 -35.5t-41.5 -60.5t-15.5 -85.5v-231q0 -51 17 -87t44.5 -59.5t62.5 -34.5t70 -11q40 0 75.5 11.5t62 35t42 59.5t15.5 86v231zM536 220q0 -51 -17.5 -93 t-49 -71.5t-76.5 -46t-100 -16.5q-56 0 -100.5 16.5t-76 47t-48.5 73t-17 93.5v245q0 50 16.5 92t48 72t76.5 47t101 17q55 0 100 -17t76.5 -47.5t49 -72.5t17.5 -91v-248z"/>
<glyph glyph-name="Oacute" horiz-adv-x="587" unicode="Ó" d="M251 751l136 108l35 -37l-151 -93zM488 459q0 49 -16 85.5t-43 60.5t-62 35.5t-74 11.5q-40 0 -75.5 -11.5t-61.5 -35.5t-41.5 -60.5t-15.5 -85.5v-231q0 -51 17 -87t44.5 -59.5t62.5 -34.5t70 -11q40 0 75.5 11.5t62 35t42 59.5t15.5 86v231zM536 220q0 -51 -17.5 -93 t-49 -71.5t-76.5 -46t-100 -16.5q-56 0 -100.5 16.5t-76 47t-48.5 73t-17 93.5v245q0 50 16.5 92t48 72t76.5 47t101 17q55 0 100 -17t76.5 -47.5t49 -72.5t17.5 -91v-248z"/>
<glyph glyph-name="Ocircumflex" horiz-adv-x="587" unicode="Ô" d="M295 814l-130 -84l-18 21l131 109h37l127 -108l-18 -21zM488 459q0 49 -16 85.5t-43 60.5t-62 35.5t-74 11.5q-40 0 -75.5 -11.5t-61.5 -35.5t-41.5 -60.5t-15.5 -85.5v-231q0 -51 17 -87t44.5 -59.5t62.5 -34.5t70 -11q40 0 75.5 11.5t62 35t42 59.5t15.5 86v231z M536 220q0 -51 -17.5 -93t-49 -71.5t-76.5 -46t-100 -16.5q-56 0 -100.5 16.5t-76 47t-48.5 73t-17 93.5v245q0 50 16.5 92t48 72t76.5 47t101 17q55 0 100 -17t76.5 -47.5t49 -72.5t17.5 -91v-248z"/>
<glyph glyph-name="Otilde" horiz-adv-x="587" unicode="Õ" d="M238 827q16 0 33 -6.5t33.5 -14.5t32 -14.5t27.5 -6.5q16 0 28.5 9.5t27.5 31.5l30 -17q-19 -35 -40 -50t-45 -15q-15 0 -31 6t-32.5 13.5t-32.5 14t-30 6.5q-19 0 -33 -9.5t-30 -29.5l-30 18q19 31 42.5 47.5t49.5 16.5zM488 459q0 49 -16 85.5t-43 60.5t-62 35.5 t-74 11.5q-40 0 -75.5 -11.5t-61.5 -35.5t-41.5 -60.5t-15.5 -85.5v-231q0 -51 17 -87t44.5 -59.5t62.5 -34.5t70 -11q40 0 75.5 11.5t62 35t42 59.5t15.5 86v231zM536 220q0 -51 -17.5 -93t-49 -71.5t-76.5 -46t-100 -16.5q-56 0 -100.5 16.5t-76 47t-48.5 73t-17 93.5v245 q0 50 16.5 92t48 72t76.5 47t101 17q55 0 100 -17t76.5 -47.5t49 -72.5t17.5 -91v-248z"/>
<glyph glyph-name="Odieresis" horiz-adv-x="587" unicode="Ö" d="M245 785q0 -14 -9.5 -23t-23.5 -9q-12 0 -21.5 9t-9.5 23q0 13 9.5 22.5t21.5 9.5q14 0 23.5 -9.5t9.5 -22.5zM413 785q0 -14 -9 -23t-23 -9q-13 0 -22.5 9t-9.5 23q0 13 9.5 22.5t22.5 9.5q14 0 23 -9.5t9 -22.5zM488 459q0 49 -16 85.5t-43 60.5t-62 35.5t-74 11.5 q-40 0 -75.5 -11.5t-61.5 -35.5t-41.5 -60.5t-15.5 -85.5v-231q0 -51 17 -87t44.5 -59.5t62.5 -34.5t70 -11q40 0 75.5 11.5t62 35t42 59.5t15.5 86v231zM536 220q0 -51 -17.5 -93t-49 -71.5t-76.5 -46t-100 -16.5q-56 0 -100.5 16.5t-76 47t-48.5 73t-17 93.5v245 q0 50 16.5 92t48 72t76.5 47t101 17q55 0 100 -17t76.5 -47.5t49 -72.5t17.5 -91v-248z"/>
<glyph glyph-name="multiply" d="M263 273l158 -158l-26 -26l-158 157l-160 -160l-26 26l161 161l-157 157l26 26l157 -157l159 159l25 -26z" unicode="×"/>
<glyph glyph-name="Oslash" horiz-adv-x="587" unicode="Ø" d="M99 228q0 -32 7 -58.5t19 -46.5l316 470q-28 30 -66.5 44.5t-81.5 14.5q-40 0 -75.5 -11.5t-61.5 -35.5t-41.5 -60.5t-15.5 -85.5v-231zM488 459q0 62 -27 106l-315 -470q29 -31 67.5 -45t79.5 -14q40 0 75.5 11.5t62 35t42 59.5t15.5 86v231zM536 220q0 -51 -17.5 -93 t-49 -71.5t-76.5 -46t-100 -16.5t-98.5 16t-75.5 45l-42 -62l-27 18l46 69q-45 59 -45 144v245q0 50 16.5 92t48 72t76.5 47t101 17q54 0 98 -17t76 -46l43 63l27 -18l-47 -70q46 -58 46 -140v-248z"/>
<glyph glyph-name="Ugrave" horiz-adv-x="590" unicode="Ù" d="M325 729l-151 93l35 37l136 -108zM539 219q0 -51 -18 -93t-50.5 -71.5t-77.5 -45.5t-98 -16q-54 0 -98.5 16t-76.5 46t-50 72t-18 93v469h49v-461q0 -51 16.5 -87t43.5 -59t62 -34t72 -11q38 0 73.5 11t62.5 34t43 59t16 87v461h49v-470z"/>
<glyph glyph-name="Uacute" horiz-adv-x="590" unicode="Ú" d="M243 751l136 108l35 -37l-151 -93zM539 219q0 -51 -18 -93t-50.5 -71.5t-77.5 -45.5t-98 -16q-54 0 -98.5 16t-76.5 46t-50 72t-18 93v469h49v-461q0 -51 16.5 -87t43.5 -59t62 -34t72 -11q38 0 73.5 11t62.5 34t43 59t16 87v461h49v-470z"/>
<glyph glyph-name="Ucircumflex" horiz-adv-x="590" unicode="Û" d="M295 814l-130 -84l-18 21l131 109h37l127 -108l-18 -21zM539 219q0 -51 -18 -93t-50.5 -71.5t-77.5 -45.5t-98 -16q-54 0 -98.5 16t-76.5 46t-50 72t-18 93v469h49v-461q0 -51 16.5 -87t43.5 -59t62 -34t72 -11q38 0 73.5 11t62.5 34t43 59t16 87v461h49v-470z"/>
<glyph glyph-name="Udieresis" horiz-adv-x="590" unicode="Ü" d="M247 785q0 -14 -9.5 -23t-23.5 -9q-12 0 -21.5 9t-9.5 23q0 13 9.5 22.5t21.5 9.5q14 0 23.5 -9.5t9.5 -22.5zM415 785q0 -14 -9 -23t-23 -9q-13 0 -22.5 9t-9.5 23q0 13 9.5 22.5t22.5 9.5q14 0 23 -9.5t9 -22.5zM539 219q0 -51 -18 -93t-50.5 -71.5t-77.5 -45.5 t-98 -16q-54 0 -98.5 16t-76.5 46t-50 72t-18 93v469h49v-461q0 -51 16.5 -87t43.5 -59t62 -34t72 -11q38 0 73.5 11t62.5 34t43 59t16 87v461h49v-470z"/>
<glyph glyph-name="Yacute" horiz-adv-x="490" unicode="Ý" d="M180 751l136 108l35 -37l-151 -93zM269 0h-48v259q-52 109 -104 215t-105 215h53l78 -162l75 -160q8 -14 14.5 -27l13.5 -27l101 216l77 160h51q-51 -108 -102.5 -214.5t-103.5 -213.5v-261z"/>
<glyph glyph-name="Thorn" horiz-adv-x="539" unicode="Þ" d="M467 356q0 35 -12 63.5t-32.5 48.5t-48 30.5t-58.5 10.5h-214v-304h214q31 0 58.5 10t48 29.5t32.5 47.5t12 64zM516 356q0 -36 -12.5 -70.5t-37 -62.5t-60 -45t-81.5 -17h-223v-161h-47v689h48v-135h222q48 0 84 -17.5t60 -45.5t35.5 -63.5t11.5 -71.5z"/>
<glyph glyph-name="germandbls" horiz-adv-x="479" unicode="ß" d="M94 0h-44v528q0 42 13.5 76t37.5 58t57.5 37t72.5 13q51 0 85.5 -16t55 -40t29 -53t8.5 -54q0 -14 -3 -32.5t-11 -37.5t-23.5 -36.5t-39.5 -29.5q30 -8 50 -26t32 -40t16.5 -46.5t4.5 -46.5v-89q0 -83 -45.5 -127t-124.5 -44h-19.5t-21.5 2v38h37q71 0 100.5 38.5 t29.5 104.5v77q0 63 -34 96.5t-97 33.5h-18v40h12q30 0 51 12t34.5 30.5t19.5 40t6 39.5q0 21 -7 43.5t-23 41t-41.5 30.5t-62.5 12q-38 0 -64 -14t-42.5 -35.5t-23.5 -47.5t-7 -50v-526z"/>
<glyph glyph-name="agrave" horiz-adv-x="466" unicode="à" d="M249 563l-99 147l48 19l79 -154zM214 235q-20 0 -43.5 -3t-44 -13.5t-34 -31t-13.5 -54.5q0 -26 9 -44.5t24.5 -30.5t36 -18t43.5 -6q22 0 45.5 6.5t47.5 16.5t47 22.5t43 24.5v131h-161zM375 61h-1q-36 -23 -64.5 -36t-51 -20t-40.5 -9t-32 -2q-69 0 -111.5 35 t-42.5 104q0 39 16 66t40 43.5t53 24t56 7.5h178v49q0 132 -139 132q-35 0 -72 -10t-75 -36l-24 36q42 28 84 39.5t90 11.5q51 0 85.5 -11.5t55.5 -33.5t30 -52.5t9 -68.5v-330h-36z"/>
<glyph glyph-name="aacute" horiz-adv-x="466" unicode="á" d="M222 575l78 154l49 -19l-100 -147zM214 235q-20 0 -43.5 -3t-44 -13.5t-34 -31t-13.5 -54.5q0 -26 9 -44.5t24.5 -30.5t36 -18t43.5 -6q22 0 45.5 6.5t47.5 16.5t47 22.5t43 24.5v131h-161zM375 61h-1q-36 -23 -64.5 -36t-51 -20t-40.5 -9t-32 -2q-69 0 -111.5 35 t-42.5 104q0 39 16 66t40 43.5t53 24t56 7.5h178v49q0 132 -139 132q-35 0 -72 -10t-75 -36l-24 36q42 28 84 39.5t90 11.5q51 0 85.5 -11.5t55.5 -33.5t30 -52.5t9 -68.5v-330h-36z"/>
<glyph glyph-name="acircumflex" horiz-adv-x="466" unicode="â" d="M242 654l-127 -98l-21 21l132 124h37l126 -123l-21 -21zM214 235q-20 0 -43.5 -3t-44 -13.5t-34 -31t-13.5 -54.5q0 -26 9 -44.5t24.5 -30.5t36 -18t43.5 -6q22 0 45.5 6.5t47.5 16.5t47 22.5t43 24.5v131h-161zM375 61h-1q-36 -23 -64.5 -36t-51 -20t-40.5 -9t-32 -2 q-69 0 -111.5 35t-42.5 104q0 39 16 66t40 43.5t53 24t56 7.5h178v49q0 132 -139 132q-35 0 -72 -10t-75 -36l-24 36q42 28 84 39.5t90 11.5q51 0 85.5 -11.5t55.5 -33.5t30 -52.5t9 -68.5v-330h-36z"/>
<glyph glyph-name="atilde" horiz-adv-x="466" unicode="ã" d="M186 684q16 0 33 -6.5t33.5 -14.5t32 -14.5t27.5 -6.5q16 0 28.5 9.5t27.5 31.5l30 -17q-19 -35 -40 -50t-45 -15q-15 0 -31 6t-32.5 13.5t-32.5 14t-30 6.5q-19 0 -33 -9.5t-30 -29.5l-30 18q19 31 42.5 47.5t49.5 16.5zM214 235q-20 0 -43.5 -3t-44 -13.5t-34 -31 t-13.5 -54.5q0 -26 9 -44.5t24.5 -30.5t36 -18t43.5 -6q22 0 45.5 6.5t47.5 16.5t47 22.5t43 24.5v131h-161zM375 61h-1q-36 -23 -64.5 -36t-51 -20t-40.5 -9t-32 -2q-69 0 -111.5 35t-42.5 104q0 39 16 66t40 43.5t53 24t56 7.5h178v49q0 132 -139 132q-35 0 -72 -10 t-75 -36l-24 36q42 28 84 39.5t90 11.5q51 0 85.5 -11.5t55.5 -33.5t30 -52.5t9 -68.5v-330h-36z"/>
<glyph glyph-name="adieresis" horiz-adv-x="466" unicode="ä" d="M197 650q0 -13 -9.5 -22.5t-23.5 -9.5q-12 0 -21.5 9.5t-9.5 22.5q0 14 9.5 23t21.5 9q14 0 23.5 -9t9.5 -23zM365 650q0 -13 -9 -22.5t-23 -9.5q-13 0 -22.5 9.5t-9.5 22.5q0 14 9.5 23t22.5 9q14 0 23 -9t9 -23zM214 235q-20 0 -43.5 -3t-44 -13.5t-34 -31t-13.5 -54.5 q0 -26 9 -44.5t24.5 -30.5t36 -18t43.5 -6q22 0 45.5 6.5t47.5 16.5t47 22.5t43 24.5v131h-161zM375 61h-1q-36 -23 -64.5 -36t-51 -20t-40.5 -9t-32 -2q-69 0 -111.5 35t-42.5 104q0 39 16 66t40 43.5t53 24t56 7.5h178v49q0 132 -139 132q-35 0 -72 -10t-75 -36l-24 36 q42 28 84 39.5t90 11.5q51 0 85.5 -11.5t55.5 -33.5t30 -52.5t9 -68.5v-330h-36z"/>
<glyph glyph-name="aring" horiz-adv-x="466" unicode="å" d="M313 643q0 26 -18 44.5t-45 18.5q-26 0 -44.5 -18.5t-18.5 -44.5t18.5 -44.5t44.5 -18.5q27 0 45 18.5t18 44.5zM342 643q0 -19 -7 -35.5t-19.5 -29t-29.5 -19.5t-36 -7q-38 0 -65 26.5t-27 64.5q0 19 7.5 35.5t20 29t29 19.5t35.5 7t36 -7t29.5 -19.5t19.5 -29t7 -35.5z M214 235q-20 0 -43.5 -3t-44 -13.5t-34 -31t-13.5 -54.5q0 -26 9 -44.5t24.5 -30.5t36 -18t43.5 -6q22 0 45.5 6.5t47.5 16.5t47 22.5t43 24.5v131h-161zM375 61h-1q-36 -23 -64.5 -36t-51 -20t-40.5 -9t-32 -2q-69 0 -111.5 35t-42.5 104q0 39 16 66t40 43.5t53 24t56 7.5 h178v49q0 132 -139 132q-35 0 -72 -10t-75 -36l-24 36q42 28 84 39.5t90 11.5q51 0 85.5 -11.5t55.5 -33.5t30 -52.5t9 -68.5v-330h-36z"/>
<glyph glyph-name="ae" horiz-adv-x="792" unicode="æ" d="M567 456q-27 0 -53.5 -8.5t-47 -27t-33.5 -47t-13 -67.5v-39h287v40q0 40 -12 68.5t-32 46.5t-45 26t-51 8zM213 229q-20 0 -43 -2t-43.5 -11.5t-34 -29t-13.5 -53.5q0 -26 9 -44.5t24.5 -30.5t36.5 -18t44 -6q21 0 46 7t50.5 17.5t49 24t43.5 25.5q-3 14 -5 32t-2 38v51 h-162zM420 174q0 -39 13 -66t34 -43.5t48 -24t56 -7.5q41 0 74 13.5t59 38.5l28 -31q-32 -31 -72.5 -45.5t-90.5 -14.5q-55 0 -98.5 20t-72.5 63q-42 -29 -75 -45.5t-58.5 -24.5t-44.5 -10.5t-34 -2.5q-69 0 -111.5 35t-42.5 104q0 39 16 65t40.5 41t53.5 21.5t56 6.5h177 v56q0 37 -10 62.5t-28.5 41t-44.5 22t-57 6.5q-35 0 -71.5 -10t-74.5 -36l-24 36q42 28 83 39.5t89 11.5q69 0 108 -23.5t56 -63.5q24 41 66.5 64t99.5 23q41 0 75 -12.5t59 -35t38.5 -55.5t13.5 -73v-91h-333v-55z"/>
<glyph glyph-name="ccedilla" horiz-adv-x="410" unicode="ç" d="M225 -163q21 0 41.5 9t20.5 35q0 13 -6.5 22.5t-17 15t-23.5 7.5t-26 0l-20 10l19 60q-38 4 -68.5 18.5t-51.5 37.5t-32.5 54t-11.5 67v148q0 40 14 72.5t39.5 55.5t60 36t76.5 13q38 0 78.5 -10.5t70.5 -36.5l-28 -36q-29 23 -60.5 32t-56.5 9q-28 0 -54.5 -8 t-47.5 -25.5t-33.5 -45.5t-12.5 -68v-125q0 -39 12.5 -67t33.5 -46t47.5 -26t53.5 -8q24 0 59 8.5t59 27.5l27 -34q-31 -23 -69 -33t-76 -11q-3 -10 -6.5 -19t-6.5 -20q27 0 45 -8t29 -19.5t15.5 -24.5t4.5 -24t-5 -23.5t-16.5 -23.5t-30 -18t-45.5 -7q-11 0 -29.5 2.5 t-43.5 10.5l10 26q17 -5 33 -7.5t29 -2.5z"/>
<glyph glyph-name="egrave" horiz-adv-x="466" unicode="è" d="M246 563l-99 147l48 19l79 -154zM382 308q0 40 -12.5 68t-32.5 46t-45 26t-51 8q-27 0 -53.5 -8.5t-47 -26.5t-33.5 -46.5t-13 -67.5v-41h288v42zM94 227v-46q0 -41 13 -69t34 -45.5t48 -25.5t56 -8q41 0 74 14t59 39l28 -32q-31 -31 -72 -45.5t-91 -14.5 q-42 0 -77.5 11.5t-61.5 34t-40.5 56t-14.5 77.5v139q0 42 14 76t39.5 58.5t61 37.5t77.5 13q41 0 75 -13.5t59 -37.5t38.5 -58t13.5 -74v-87h-333z"/>
<glyph glyph-name="eacute" horiz-adv-x="466" unicode="é" d="M208 575l78 154l49 -19l-100 -147zM382 308q0 40 -12.5 68t-32.5 46t-45 26t-51 8q-27 0 -53.5 -8.5t-47 -26.5t-33.5 -46.5t-13 -67.5v-41h288v42zM94 227v-46q0 -41 13 -69t34 -45.5t48 -25.5t56 -8q41 0 74 14t59 39l28 -32q-31 -31 -72 -45.5t-91 -14.5 q-42 0 -77.5 11.5t-61.5 34t-40.5 56t-14.5 77.5v139q0 42 14 76t39.5 58.5t61 37.5t77.5 13q41 0 75 -13.5t59 -37.5t38.5 -58t13.5 -74v-87h-333z"/>
<glyph glyph-name="ecircumflex" horiz-adv-x="466" unicode="ê" d="M235 654l-127 -98l-21 21l132 124h37l126 -123l-21 -21zM382 308q0 40 -12.5 68t-32.5 46t-45 26t-51 8q-27 0 -53.5 -8.5t-47 -26.5t-33.5 -46.5t-13 -67.5v-41h288v42zM94 227v-46q0 -41 13 -69t34 -45.5t48 -25.5t56 -8q41 0 74 14t59 39l28 -32q-31 -31 -72 -45.5 t-91 -14.5q-42 0 -77.5 11.5t-61.5 34t-40.5 56t-14.5 77.5v139q0 42 14 76t39.5 58.5t61 37.5t77.5 13q41 0 75 -13.5t59 -37.5t38.5 -58t13.5 -74v-87h-333z"/>
<glyph glyph-name="edieresis" horiz-adv-x="466" unicode="ë" d="M192 650q0 -13 -9.5 -22.5t-23.5 -9.5q-12 0 -21.5 9.5t-9.5 22.5q0 14 9.5 23t21.5 9q14 0 23.5 -9t9.5 -23zM360 650q0 -13 -9 -22.5t-23 -9.5q-13 0 -22.5 9.5t-9.5 22.5q0 14 9.5 23t22.5 9q14 0 23 -9t9 -23zM382 308q0 40 -12.5 68t-32.5 46t-45 26t-51 8 q-27 0 -53.5 -8.5t-47 -26.5t-33.5 -46.5t-13 -67.5v-41h288v42zM94 227v-46q0 -41 13 -69t34 -45.5t48 -25.5t56 -8q41 0 74 14t59 39l28 -32q-31 -31 -72 -45.5t-91 -14.5q-42 0 -77.5 11.5t-61.5 34t-40.5 56t-14.5 77.5v139q0 42 14 76t39.5 58.5t61 37.5t77.5 13 q41 0 75 -13.5t59 -37.5t38.5 -58t13.5 -74v-87h-333z"/>
<glyph glyph-name="igrave" horiz-adv-x="205" unicode="ì" d="M91 563l-99 147l48 19l79 -154zM80 0v491h44v-491h-44z"/>
<glyph glyph-name="iacute" horiz-adv-x="205" unicode="í" d="M79 575l78 154l49 -19l-100 -147zM80 0v491h44v-491h-44z"/>
<glyph glyph-name="icircumflex" horiz-adv-x="275" unicode="î" d="M138 654l-127 -98l-21 21l132 124h37l126 -123l-21 -21zM116 0v491h44v-491h-44z"/>
<glyph glyph-name="idieresis" horiz-adv-x="212" unicode="ï" d="M54 650q0 -13 -9.5 -22.5t-23.5 -9.5q-12 0 -21.5 9.5t-9.5 22.5q0 14 9.5 23t21.5 9q14 0 23.5 -9t9.5 -23zM222 650q0 -13 -9 -22.5t-23 -9.5q-13 0 -22.5 9.5t-9.5 22.5q0 14 9.5 23t22.5 9q14 0 23 -9t9 -23zM84 0v491h44v-491h-44z"/>
<glyph glyph-name="eth" horiz-adv-x="479" unicode="ð" d="M404 287q0 40 -12.5 68t-33 45.5t-47 25.5t-54.5 8q-29 0 -56 -8t-48 -26t-34 -46.5t-13 -68.5v-103q0 -40 12 -68t33 -46t48 -26t57 -8t57 8.5t47.5 26.5t32 46t11.5 67v105zM405 404q-2 54 -8 102.5t-26 79.5q-20 -14 -39 -27.5t-39 -27.5l-17 25l77 55 q-23 33 -59.5 51.5t-94.5 24.5q2 10 3.5 20t3.5 19q64 -5 110 -28.5t73 -61.5l77 55l18 -26l-77 -54q29 -52 35 -117t6 -147v-169q0 -84 -50.5 -134t-144.5 -50q-43 0 -78.5 12.5t-60.5 36t-39 56t-14 72.5v123q0 40 14.5 73.5t40 57.5t61 37.5t77.5 13.5q47 0 87.5 -17.5 t63.5 -54.5z"/>
<glyph glyph-name="ntilde" horiz-adv-x="480" unicode="ñ" d="M168 684q16 0 33 -6.5t33.5 -14.5t32 -14.5t27.5 -6.5q16 0 28.5 9.5t27.5 31.5l30 -17q-19 -35 -40 -50t-45 -15q-15 0 -31 6t-32.5 13.5t-32.5 14t-30 6.5q-19 0 -33 -9.5t-30 -29.5l-30 18q19 31 42.5 47.5t49.5 16.5zM281 497q73 0 113 -41.5t40 -126.5v-329h-45v318 q0 73 -30 104t-84 31h-3q-36 0 -83 -21.5t-96 -54.5v-377h-45v491h37l8 -68q35 21 62.5 35.5t49.5 23t40.5 12t35.5 3.5z"/>
<glyph glyph-name="ograve" horiz-adv-x="479" unicode="ò" d="M250 563l-99 147l48 19l79 -154zM389 308q0 40 -13.5 68t-34.5 45.5t-47.5 25.5t-52.5 8q-27 0 -54 -8t-48 -25.5t-34.5 -45.5t-13.5 -68v-125q0 -41 12.5 -69t33 -45.5t47.5 -25.5t57 -8t56.5 8.5t47 26.5t32.5 46t12 67v125zM433 173q0 -84 -53 -131.5t-141 -47.5 q-43 0 -78.5 12.5t-61 36t-39.5 56t-14 73.5v150q0 40 15.5 72.5t42 55t61.5 35t75 12.5q41 0 76.5 -12.5t61.5 -35t40.5 -55t14.5 -72.5v-149z"/>
<glyph glyph-name="oacute" horiz-adv-x="479" unicode="ó" d="M209 575l78 154l49 -19l-100 -147zM389 308q0 40 -13.5 68t-34.5 45.5t-47.5 25.5t-52.5 8q-27 0 -54 -8t-48 -25.5t-34.5 -45.5t-13.5 -68v-125q0 -41 12.5 -69t33 -45.5t47.5 -25.5t57 -8t56.5 8.5t47 26.5t32.5 46t12 67v125zM433 173q0 -84 -53 -131.5t-141 -47.5 q-43 0 -78.5 12.5t-61 36t-39.5 56t-14 73.5v150q0 40 15.5 72.5t42 55t61.5 35t75 12.5q41 0 76.5 -12.5t61.5 -35t40.5 -55t14.5 -72.5v-149z"/>
<glyph glyph-name="ocircumflex" horiz-adv-x="479" unicode="ô" d="M243 654l-127 -98l-21 21l132 124h37l126 -123l-21 -21zM389 308q0 40 -13.5 68t-34.5 45.5t-47.5 25.5t-52.5 8q-27 0 -54 -8t-48 -25.5t-34.5 -45.5t-13.5 -68v-125q0 -41 12.5 -69t33 -45.5t47.5 -25.5t57 -8t56.5 8.5t47 26.5t32.5 46t12 67v125zM433 173 q0 -84 -53 -131.5t-141 -47.5q-43 0 -78.5 12.5t-61 36t-39.5 56t-14 73.5v150q0 40 15.5 72.5t42 55t61.5 35t75 12.5q41 0 76.5 -12.5t61.5 -35t40.5 -55t14.5 -72.5v-149z"/>
<glyph glyph-name="otilde" horiz-adv-x="479" unicode="õ" d="M185 684q16 0 33 -6.5t33.5 -14.5t32 -14.5t27.5 -6.5q16 0 28.5 9.5t27.5 31.5l30 -17q-19 -35 -40 -50t-45 -15q-15 0 -31 6t-32.5 13.5t-32.5 14t-30 6.5q-19 0 -33 -9.5t-30 -29.5l-30 18q19 31 42.5 47.5t49.5 16.5zM389 308q0 40 -13.5 68t-34.5 45.5t-47.5 25.5 t-52.5 8q-27 0 -54 -8t-48 -25.5t-34.5 -45.5t-13.5 -68v-125q0 -41 12.5 -69t33 -45.5t47.5 -25.5t57 -8t56.5 8.5t47 26.5t32.5 46t12 67v125zM433 173q0 -84 -53 -131.5t-141 -47.5q-43 0 -78.5 12.5t-61 36t-39.5 56t-14 73.5v150q0 40 15.5 72.5t42 55t61.5 35t75 12.5 q41 0 76.5 -12.5t61.5 -35t40.5 -55t14.5 -72.5v-149z"/>
<glyph glyph-name="odieresis" horiz-adv-x="479" unicode="ö" d="M189 650q0 -13 -9.5 -22.5t-23.5 -9.5q-12 0 -21.5 9.5t-9.5 22.5q0 14 9.5 23t21.5 9q14 0 23.5 -9t9.5 -23zM357 650q0 -13 -9 -22.5t-23 -9.5q-13 0 -22.5 9.5t-9.5 22.5q0 14 9.5 23t22.5 9q14 0 23 -9t9 -23zM389 308q0 40 -13.5 68t-34.5 45.5t-47.5 25.5t-52.5 8 q-27 0 -54 -8t-48 -25.5t-34.5 -45.5t-13.5 -68v-125q0 -41 12.5 -69t33 -45.5t47.5 -25.5t57 -8t56.5 8.5t47 26.5t32.5 46t12 67v125zM433 173q0 -84 -53 -131.5t-141 -47.5q-43 0 -78.5 12.5t-61 36t-39.5 56t-14 73.5v150q0 40 15.5 72.5t42 55t61.5 35t75 12.5 q41 0 76.5 -12.5t61.5 -35t40.5 -55t14.5 -72.5v-149z"/>
<glyph glyph-name="divide" d="M240 147q14 0 25.5 -10t11.5 -27q0 -16 -11 -27t-27 -11q-17 0 -28 11t-11 27q0 17 12 27t28 10zM28 261v37h416v-37h-416zM277 448q0 -16 -11 -27.5t-27 -11.5q-17 0 -28 11.5t-11 27.5q0 17 11.5 27t27.5 10q15 0 26.5 -10t11.5 -27z" unicode="÷"/>
<glyph glyph-name="oslash" horiz-adv-x="479" unicode="ø" d="M91 183q0 -51 20 -85l237 317q-22 21 -50 30.5t-57 9.5q-27 0 -54 -8t-48 -25.5t-34.5 -45.5t-13.5 -68v-125zM389 308q0 50 -22 83l-237 -317q21 -21 50 -30t61 -9q30 0 56.5 8.5t47 26.5t32.5 46t12 67v125zM433 173q0 -84 -53 -131.5t-141 -47.5q-42 0 -76 11.5 t-59 32.5l-34 -45l-24 18l37 49q-37 45 -37 112v150q0 40 15.5 72.5t42 55t61.5 35t75 12.5q41 0 75 -12t60 -34l34 45l24 -17l-37 -49q17 -22 27 -49t10 -59v-149z"/>
<glyph glyph-name="ugrave" horiz-adv-x="482" unicode="ù" d="M249 563l-99 147l48 19l79 -154zM395 0l-8 68q-34 -21 -60.5 -35t-48 -23t-39.5 -12.5t-35 -3.5q-76 0 -117 41.5t-41 126.5v329h45v-318q0 -73 31 -104.5t86 -31.5q36 0 83 21.5t96 56.5v376h46v-491h-38z"/>
<glyph glyph-name="uacute" horiz-adv-x="482" unicode="ú" d="M218 575l78 154l49 -19l-100 -147zM395 0l-8 68q-34 -21 -60.5 -35t-48 -23t-39.5 -12.5t-35 -3.5q-76 0 -117 41.5t-41 126.5v329h45v-318q0 -73 31 -104.5t86 -31.5q36 0 83 21.5t96 56.5v376h46v-491h-38z"/>
<glyph glyph-name="ucircumflex" horiz-adv-x="482" unicode="û" d="M242 654l-127 -98l-21 21l132 124h37l126 -123l-21 -21zM395 0l-8 68q-34 -21 -60.5 -35t-48 -23t-39.5 -12.5t-35 -3.5q-76 0 -117 41.5t-41 126.5v329h45v-318q0 -73 31 -104.5t86 -31.5q36 0 83 21.5t96 56.5v376h46v-491h-38z"/>
<glyph glyph-name="udieresis" horiz-adv-x="482" unicode="ü" d="M188 650q0 -13 -9.5 -22.5t-23.5 -9.5q-12 0 -21.5 9.5t-9.5 22.5q0 14 9.5 23t21.5 9q14 0 23.5 -9t9.5 -23zM356 650q0 -13 -9 -22.5t-23 -9.5q-13 0 -22.5 9.5t-9.5 22.5q0 14 9.5 23t22.5 9q14 0 23 -9t9 -23zM395 0l-8 68q-34 -21 -60.5 -35t-48 -23t-39.5 -12.5 t-35 -3.5q-76 0 -117 41.5t-41 126.5v329h45v-318q0 -73 31 -104.5t86 -31.5q36 0 83 21.5t96 56.5v376h46v-491h-38z"/>
<glyph glyph-name="yacute" horiz-adv-x="428" unicode="ý" d="M179 575l78 154l49 -19l-100 -147zM116 -198l72 200l-28 29l-153 459h47q20 -57 38 -114t38 -115l75 -222h1l81 222q21 58 42 115t41 114h47q-63 -174 -126.5 -344.5t-126.5 -343.5h-48z"/>
<glyph glyph-name="thorn" horiz-adv-x="478" unicode="þ" d="M93 85q55 -28 94 -39t71 -11q66 0 99 33.5t33 105.5v145q0 73 -30 104t-83 31q-34 0 -84 -21t-100 -55v-293zM93 689v-264q70 45 114 58.5t72 13.5q72 0 113.5 -41t41.5 -126v-166q0 -83 -45.5 -127t-126.5 -44q-30 0 -69.5 8t-99.5 38v-242h-44v892h44z"/>
<glyph glyph-name="OE" horiz-adv-x="839" unicode="Œ" d="M293 36q19 0 36.5 2t34.5 7v597q-33 10 -71 10q-40 0 -75.5 -11.5t-61.5 -35.5t-41.5 -60.5t-15.5 -85.5v-231q0 -51 17 -87t44.5 -59.5t62.5 -34.5t70 -11zM364 0q-17 -3 -34.5 -5t-36.5 -2q-56 0 -100.5 16.5t-76 47t-48.5 73t-17 93.5v245q0 50 16.5 92t48 72t76.5 47 t101 17q19 0 36.5 -2t34.5 -5h443v-44h-395v-274h339v-43h-339v-285h395v-43h-443z"/>
<glyph glyph-name="oe" horiz-adv-x="805" unicode="œ" d="M721 308q0 40 -12 68t-32 46t-45.5 26t-51.5 8q-27 0 -53 -8.5t-47 -26.5t-33.5 -46.5t-12.5 -67.5v-41h287v42zM388 316q0 36 -13.5 62.5t-35 43.5t-47.5 25t-51 8q-27 0 -54 -8t-48 -25.5t-34.5 -45.5t-13.5 -68v-125q0 -41 12.5 -69t33 -45.5t47.5 -25.5t57 -8 q28 0 54 8t46.5 24.5t33.5 41.5t13 58v149zM434 227v-46q0 -41 12.5 -69t33.5 -45.5t48 -25.5t56 -8q42 0 74.5 14t58.5 39l29 -32q-32 -31 -73 -45.5t-91 -14.5q-60 0 -104.5 23t-67.5 68q-22 -44 -65.5 -67.5t-105.5 -23.5q-43 0 -78.5 12.5t-61 36t-39.5 56t-14 73.5v150 q0 40 15.5 72.5t42 55t61.5 35t75 12.5q59 0 104 -24.5t68 -69.5q23 44 66.5 69t101.5 25q41 0 75.5 -12.5t59 -35.5t38 -56t13.5 -73v-93h-332z"/>
<glyph glyph-name="Scaron" horiz-adv-x="536" unicode="Š" d="M400 861l18 -21l-126 -109h-37l-131 110l17 21l130 -84zM504 181q0 -44 -17 -78.5t-48 -58.5t-74.5 -37t-97.5 -13q-68 0 -126 17.5t-111 50.5l27 37q46 -28 100 -45t111 -17q39 0 73 9.5t59 27.5t39.5 45t14.5 62q0 40 -16.5 65.5t-43 41.5t-60.5 25t-68 16 q-40 7 -79.5 19.5t-70.5 33.5t-50.5 53t-19.5 79q0 41 15 75t43 58t68.5 37.5t90.5 13.5q55 0 107 -10t98 -35l-22 -42q-43 23 -91 33t-96 10q-32 0 -61.5 -8t-52 -25.5t-36.5 -44.5t-14 -64q0 -36 16.5 -59.5t43.5 -39t60.5 -24.5t66.5 -16q47 -10 87.5 -23t70.5 -34 t47 -53.5t17 -81.5z"/>
<glyph glyph-name="scaron" horiz-adv-x="439" unicode="š" d="M351 701l21 -20l-126 -124h-37l-132 124l21 21l127 -97zM227 31q22 0 46 5t43 17t31.5 31.5t12.5 48.5q0 42 -33 63.5t-111 34.5q-30 5 -60 12.5t-54.5 21t-40 36t-15.5 57.5q0 61 45.5 100t123.5 39q51 0 91 -9.5t74 -32.5l-23 -34q-62 37 -139 37q-58 0 -93 -27 t-35 -73q0 -21 10.5 -36t29 -25t44 -16.5t55.5 -11.5t61.5 -12.5t57 -22t41.5 -39t16 -64.5q0 -60 -47 -98.5t-133 -38.5q-48 0 -95 10t-92 42l24 35q37 -26 77 -38t88 -12z"/>
<glyph glyph-name="Ydieresis" horiz-adv-x="490" unicode="Ÿ" d="M194 785q0 -14 -9.5 -23t-23.5 -9q-12 0 -21.5 9t-9.5 23q0 13 9.5 22.5t21.5 9.5q14 0 23.5 -9.5t9.5 -22.5zM362 785q0 -14 -9 -23t-23 -9q-13 0 -22.5 9t-9.5 23q0 13 9.5 22.5t22.5 9.5q14 0 23 -9.5t9 -22.5zM269 0h-48v259q-52 109 -104 215t-105 215h53l78 -162 l75 -160q8 -14 14.5 -27l13.5 -27l101 216l77 160h51q-51 -108 -102.5 -214.5t-103.5 -213.5v-261z"/>
<glyph glyph-name="circumflex" horiz-adv-x="482" unicode="ˆ" d="M242 654l-127 -98l-21 21l132 124h37l126 -123l-21 -21z"/>
<glyph glyph-name="tilde" horiz-adv-x="482" unicode="˜" d="M186 684q16 0 33 -6.5t33.5 -14.5t32 -14.5t27.5 -6.5q16 0 28.5 9.5t27.5 31.5l30 -17q-19 -35 -40 -50t-45 -15q-15 0 -31 6t-32.5 13.5t-32.5 14t-30 6.5q-19 0 -33 -9.5t-30 -29.5l-30 18q19 31 42.5 47.5t49.5 16.5z"/>
<glyph glyph-name="Alpha" horiz-adv-x="568" unicode="Α" d="M284 630q-4 -12 -14.5 -44.5t-25 -75t-30.5 -90.5t-30.5 -90.5t-25.5 -75t-15 -44.5h284q-4 12 -14.5 44.5t-25 75t-31 90.5t-31 91t-25.5 75t-15 44h-1zM501 0q-14 42 -29 83t-30 83h-315q-14 -42 -28 -83t-28 -83h-51l238 689h54l240 -689h-51z"/>
<glyph glyph-name="Beta" horiz-adv-x="574" unicode="Β" d="M481 188q0 35 -12.5 63t-33 48t-47.5 31t-57 11h-227v-298h225q32 0 59.5 9t48 27t32.5 45.5t12 63.5zM468 514q0 36 -12.5 60.5t-33.5 40.5t-48.5 23t-57.5 7h-212v-260h224q26 0 51.5 8t45 24t31.5 40t12 57zM529 188q0 -37 -12.5 -71t-36.5 -60t-59.5 -41.5 t-80.5 -15.5h-284v689l272 -1q48 0 83.5 -14t59.5 -37.5t35.5 -55t11.5 -66.5q0 -21 -5 -43t-17.5 -42.5t-33.5 -38t-52 -28.5q34 -11 56.5 -30.5t36.5 -44t20 -50.5t6 -50z"/>
<glyph glyph-name="Gamma" horiz-adv-x="502" unicode="Γ" d="M107 645v-645h-47v689h443v-44h-396z"/>
<glyph glyph-name="Epsilon" horiz-adv-x="532" unicode="Ε" d="M57 0v689h443v-44h-395v-274h340v-43h-340v-285h395v-43h-443z"/>
<glyph glyph-name="Zeta" horiz-adv-x="516" unicode="Ζ" d="M478 646l-380 -603h379v-43h-437v42l381 603h-365v44h422v-43z"/>
<glyph glyph-name="Eta" horiz-adv-x="596" unicode="Η" d="M492 0v329h-390v-329h-47v689h47v-317h390v317h50v-689h-50z"/>
<glyph glyph-name="Theta" horiz-adv-x="581" unicode="Θ" d="M487 459q0 49 -16 85.5t-43 60.5t-62 35.5t-73 11.5q-41 0 -76.5 -11.5t-61.5 -35.5t-41.5 -60.5t-15.5 -85.5v-231q0 -51 17 -87t45 -59.5t62.5 -34.5t70.5 -11q40 0 75 11.5t61.5 35t42 59.5t15.5 86v231zM536 220q0 -51 -17.5 -93t-49.5 -71.5t-76.5 -46t-99.5 -16.5 q-56 0 -101 16.5t-76.5 47t-48.5 73t-17 93.5v245q0 50 17 92t48.5 72t76.5 47t101 17q55 0 99.5 -17t76.5 -47.5t49.5 -72.5t17.5 -91v-248zM443 327h-303v46h303v-46z"/>
<glyph glyph-name="Iota" horiz-adv-x="216" unicode="Ι" d="M84 0v689h48v-689h-48z"/>
<glyph glyph-name="Kappa" horiz-adv-x="539" unicode="Κ" d="M293 423l245 -423h-56l-222 383q-39 -48 -78 -97t-79 -98v-188h-48v689h48v-427l346 427h58z"/>
<glyph glyph-name="Lambda" horiz-adv-x="561" unicode="Λ" d="M494 0q-32 93 -63.5 184.5t-63.5 185.5q-23 65 -45.5 134t-44.5 134l-87 -267l-126 -371h-51q60 174 119 344.5t119 344.5h54l240 -689h-51z"/>
<glyph glyph-name="Mu" horiz-adv-x="707" unicode="Μ" d="M603 577h-1q-29 -62 -55.5 -118t-52.5 -110q-31 -62 -59.5 -120.5t-57.5 -118.5h-40l-122 245l-110 223h-2v-578h-48v689h48q38 -79 76.5 -156.5t76.5 -155.5q25 -52 49.5 -103.5t50.5 -102.5l36 72l63 134q38 78 76.5 156.5t74.5 155.5h45v-689h-48v577z"/>
<glyph glyph-name="Nu" horiz-adv-x="613" unicode="Ν" d="M505 0q-63 95 -125.5 189.5t-126.5 190.5q-37 56 -73.5 112.5t-75.5 111.5v-604h-48v689h48l256 -386q37 -56 73.5 -111.5t74.5 -110.5v608h48v-689h-51z"/>
<glyph glyph-name="Xi" horiz-adv-x="517" unicode="Ξ" d="M41 0v43h189v284h-132v44h132v273h-189v46h432v-46h-198v-273h141v-44h-141v-284h198v-43h-432z"/>
<glyph glyph-name="Omicron" horiz-adv-x="587" unicode="Ο" d="M488 459q0 49 -16 85.5t-43 60.5t-62 35.5t-74 11.5q-40 0 -75.5 -11.5t-61.5 -35.5t-41.5 -60.5t-15.5 -85.5v-231q0 -51 17 -87t44.5 -59.5t62.5 -34.5t70 -11q40 0 75.5 11.5t62 35t42 59.5t15.5 86v231zM536 220q0 -51 -17.5 -93t-49 -71.5t-76.5 -46t-100 -16.5 q-56 0 -100.5 16.5t-76 47t-48.5 73t-17 93.5v245q0 50 16.5 92t48 72t76.5 47t101 17q55 0 100 -17t76.5 -47.5t49 -72.5t17.5 -91v-248z"/>
<glyph glyph-name="Pi" horiz-adv-x="590" unicode="Π" d="M490 0v645h-390v-645h-48v689h487v-689h-49z"/>
<glyph glyph-name="Rho" horiz-adv-x="539" unicode="Ρ" d="M467 492q0 35 -12 63t-32.5 48t-48 31t-58.5 11h-214v-304h214q31 0 58.5 10t48 29.5t32.5 47.5t12 64zM516 492q0 -36 -12.5 -71t-37 -63t-60 -45t-81.5 -17h-223v-296h-47v689h270q48 0 84 -17.5t60 -45.5t35.5 -63t11.5 -71z"/>
<glyph glyph-name="Sigma" horiz-adv-x="488" unicode="Σ" d="M32 0v46l184 313l-184 286v45h415v-46h-359l183 -285l-188 -316h372v-43h-423z"/>
<glyph glyph-name="Tau" horiz-adv-x="513" unicode="Τ" d="M281 644v-644h-48v644h-216v45h478v-45h-214z"/>
<glyph glyph-name="Upsilon" horiz-adv-x="490" unicode="Υ" d="M269 0h-48v259q-52 109 -104 215t-105 215h53l78 -162l75 -160q8 -14 14.5 -27l13.5 -27l101 216l77 160h51q-51 -108 -102.5 -214.5t-103.5 -213.5v-261z"/>
<glyph glyph-name="Phi" horiz-adv-x="726" unicode="Φ" d="M386 0h-47v58q-70 1 -123.5 22.5t-89.5 56t-54.5 80.5t-18.5 97v99q0 49 18 94.5t53.5 80t89 55.5t125.5 23v30h47v-30q72 -1 125.5 -22t89 -56t53.5 -80.5t18 -94.5v-99q0 -51 -18.5 -96.5t-54.5 -80.5t-89.5 -56.5t-123.5 -22.5v-58zM624 405q0 49 -16.5 89t-47.5 68 t-75 43.5t-99 15.5v-519q51 0 95 15t75.5 42.5t49.5 67t18 89.5v89zM101 316q0 -50 18 -89.5t49.5 -67t75.5 -42.5t95 -15v519q-55 0 -99 -15.5t-75 -43.5t-47.5 -68t-16.5 -89v-89z"/>
<glyph glyph-name="Chi" horiz-adv-x="501" unicode="Χ" d="M433 0l-183 311l-183 -311h-56l213 354l-198 335h56l168 -293l168 293h56l-198 -335l213 -354h-56z"/>
<glyph glyph-name="Psi" horiz-adv-x="692" unicode="Ψ" d="M641 376q0 -51 -22 -93t-59.5 -72.5t-86.5 -48.5t-103 -20v-142h-48v143q-54 1 -102.5 18.5t-86 48.5t-59.5 73.5t-22 93.5v312h48v-305q0 -50 21 -87t53.5 -61t72 -36t75.5 -13v508h48v-508q36 1 75.5 12.5t72 35.5t54 61t21.5 87v306h48v-313z"/>
<glyph glyph-name="alpha" horiz-adv-x="480" unicode="α" d="M386 387q-51 34 -100 51t-82 17q-56 0 -85.5 -33.5t-29.5 -103.5v-145q0 -71 28 -103.5t82 -32.5h3q35 0 83.5 19t100.5 57v274zM394 0l-8 65q-36 -24 -65 -38t-51.5 -21.5t-40 -9.5t-31.5 -2q-72 0 -112.5 41t-40.5 126v169q0 84 43.5 125.5t111.5 41.5q14 0 31.5 -2 t39.5 -8.5t50.5 -19t64.5 -33.5l8 56h36v-490h-36z"/>
<glyph glyph-name="beta" horiz-adv-x="479" unicode="β" d="M391 254q0 63 -34 96.5t-97 33.5h-73v40h67q30 0 51 12t34.5 30.5t19.5 40t6 39.5q0 21 -7 43.5t-23 41t-41.5 30.5t-62.5 12q-38 0 -64 -14t-42.5 -35.5t-23.5 -47.5t-7 -50v-423q48 -29 96 -48t87 -19q61 0 87.5 35t26.5 98v85zM435 165q0 -83 -41 -127t-120 -44 q-29 0 -74.5 13t-104.5 49l-8 -56h-37v528q0 42 13.5 76t37.5 58t57.5 37t72.5 13q51 0 85.5 -16t55 -40t29 -53t8.5 -54q0 -14 -3 -32.5t-11 -37.5t-23.5 -36.5t-39.5 -29.5q30 -8 50 -26t32 -40t16.5 -46.5t4.5 -46.5v-89z"/>
<glyph glyph-name="gamma" horiz-adv-x="430" unicode="γ" d="M93 444q32 -88 64.5 -184.5t64.5 -184.5h2q38 100 77 208t77 207h49q-46 -114 -91 -236.5t-91 -236.5v-221h-45v216q-39 101 -64 169t-41 113.5t-25.5 74t-17.5 51.5q-8 22 -15 27.5t-21 5.5h-4.5t-4.5 -1l-4 38q20 5 31 5q22 0 35.5 -11t23.5 -40z"/>
<glyph glyph-name="delta" horiz-adv-x="478" unicode="δ" d="M389 277q0 41 -10 70t-30.5 48.5t-51 32.5t-72.5 22q-71 -17 -102.5 -61.5t-31.5 -113.5v-92q0 -41 13 -69.5t34.5 -46.5t48 -26t53.5 -8q29 0 56 8t47.5 26t33 46.5t12.5 69.5v94zM433 170q0 -40 -14.5 -72.5t-40.5 -55.5t-61.5 -35.5t-77.5 -12.5t-77.5 12.5t-61 36 t-40 56t-14.5 72.5v120q0 71 36 118.5t94 65.5q-27 12 -44 26t-26.5 29t-12.5 29t-3 26q0 57 41.5 93.5t122.5 36.5q42 0 78.5 -10t65.5 -27l-22 -37q-29 16 -57 24.5t-63 8.5q-48 0 -82.5 -20.5t-34.5 -66.5q0 -34 34 -59.5t92 -42.5q40 -12 71.5 -27.5t53 -38t32.5 -54 t11 -74.5v-121z"/>
<glyph glyph-name="epsilon" horiz-adv-x="417" unicode="ε" d="M394 47q-38 -29 -79 -40.5t-86 -11.5q-43 0 -76.5 11t-56 30.5t-34.5 46t-12 56.5q0 10 3 26t11.5 33t24.5 33t42 25q-26 10 -40.5 23.5t-21.5 28.5t-8.5 29t-1.5 24q0 24 11 48.5t33 44t54.5 31.5t76.5 12q43 0 83.5 -13t72.5 -40l-28 -34q-53 45 -126 45q-27 0 -51 -7 t-42 -20t-28.5 -30.5t-10.5 -38.5q0 -42 27.5 -63t74.5 -21h82v-40h-90q-21 0 -39.5 -6t-33 -18.5t-23 -31t-8.5 -43.5q0 -46 38.5 -73.5t98.5 -27.5q39 0 75 11.5t62 32.5z"/>
<glyph glyph-name="zeta" horiz-adv-x="386" unicode="ζ" d="M417 666q-73 -58 -134.5 -118t-106 -119.5t-68.5 -114.5t-24 -102q0 -60 26.5 -95.5t66 -53.5t87.5 -23.5t93 -5.5h17q1 -2 3.5 -8t5.5 -12t6 -11.5t4 -7.5q-11 -16 -22 -38.5t-20 -46.5t-16.5 -48.5t-12.5 -45.5l-41 9q3 16 9.5 38.5t15 46.5t18.5 47t21 39h-12 q-50 0 -101.5 8t-94.5 31t-70.5 63.5t-27.5 104.5q0 44 17 96t56 111.5t100 123t147 131.5h-298v38h356v-37z"/>
<glyph glyph-name="eta" horiz-adv-x="480" unicode="η" d="M281 497q73 0 113 -41.5t40 -126.5v-329h-45v318q0 73 -30 104t-84 31h-3q-36 0 -83 -21.5t-96 -54.5v-377h-45v491h37l8 -68q35 21 62.5 35.5t49.5 23t40.5 12t35.5 3.5z"/>
<glyph glyph-name="theta" horiz-adv-x="476" unicode="θ" d="M90 353v-170q0 -41 13 -69t34 -45.5t48 -25.5t55 -8q30 0 56.5 8.5t47 26.5t32.5 46t12 67v170h-298zM388 521q0 40 -13.5 68.5t-34.5 46t-47.5 25.5t-52.5 8q-27 0 -54 -8t-48 -25.5t-34.5 -46t-13.5 -68.5v-129h298v129zM432 172q0 -42 -14.5 -75t-40 -56t-61 -35 t-78.5 -12q-42 0 -77 12.5t-61 35.5t-40.5 55.5t-14.5 72.5v367q0 40 16 72t43 54.5t62 34.5t73 12q39 0 74 -12t61.5 -34.5t42 -54.5t15.5 -72v-365z"/>
<glyph glyph-name="iota" horiz-adv-x="184" unicode="ι" d="M70 0v491h44v-491h-44z"/>
<glyph glyph-name="kappa" horiz-adv-x="472" unicode="κ" d="M65 0v492h45v-219h132q29 0 53.5 13t41.5 59l55 147h45l-52 -140q-13 -35 -27.5 -60.5t-43.5 -33.5q18 -4 29.5 -13t20 -21.5t15 -28.5t12.5 -34l56 -161h-47l-53 155q-8 24 -18 39.5t-22 24t-26 11.5t-32 3h-139v-233h-45z"/>
<glyph glyph-name="lambda" horiz-adv-x="483" unicode="λ" d="M388 0v377q-53 26 -93 38t-72 12q-132 0 -132 -140v-283h-45v294q0 83 47.5 127t126.5 44q29 0 68.5 -8t99.5 -37v99q0 75 -33 110.5t-102 35.5q-36 0 -73 -13t-63 -28l-20 36q36 22 79 35t81 13q93 0 134.5 -46.5t41.5 -134.5v-531h-45z"/>
<glyph glyph-name="nu" horiz-adv-x="431" unicode="ν" d="M213 59q3 8 7 18.5t13 35.5t25 69.5t42 121.5q17 47 34 93.5t32 93.5h50q-45 -123 -89.5 -246t-89.5 -245h-48q-46 122 -89 245t-88 246h49l66 -186q22 -62 42.5 -122.5t43.5 -123.5z"/>
<glyph glyph-name="xi" horiz-adv-x="416" unicode="ξ" d="M403 641q-34 17 -68.5 23t-64.5 6q-31 0 -59 -8.5t-50 -24.5t-35.5 -40.5t-13.5 -57.5q0 -32 13.5 -55.5t37 -40t53 -24t59.5 -7.5h94v-39h-112q-38 0 -68 -13.5t-52 -37t-33.5 -54t-11.5 -64.5q0 -57 27 -91t68.5 -51.5t91.5 -23t96 -5.5h20l21 -35q-12 -17 -23 -39 t-20.5 -46.5t-17 -49t-11.5 -45.5l-42 10q3 15 8.5 36t13 43.5t17.5 45t22 40.5h-12q-58 0 -112.5 9.5t-97.5 34t-67.5 65t-24.5 101.5q0 20 5.5 47t20 54.5t40.5 51.5t67 38q-37 10 -59.5 29t-35 41t-16.5 43.5t-4 37.5q0 36 15 66t41.5 52.5t64 35t83.5 12.5q14 0 32 -1.5 t38 -5t41 -9.5t40 -15z"/>
<glyph glyph-name="omicron" horiz-adv-x="479" unicode="ο" d="M389 308q0 40 -13.5 68t-34.5 45.5t-47.5 25.5t-52.5 8q-27 0 -54 -8t-48 -25.5t-34.5 -45.5t-13.5 -68v-125q0 -41 12.5 -69t33 -45.5t47.5 -25.5t57 -8t56.5 8.5t47 26.5t32.5 46t12 67v125zM433 173q0 -84 -53 -131.5t-141 -47.5q-43 0 -78.5 12.5t-61 36t-39.5 56 t-14 73.5v150q0 40 15.5 72.5t42 55t61.5 35t75 12.5q41 0 76.5 -12.5t61.5 -35t40.5 -55t14.5 -72.5v-149z"/>
<glyph glyph-name="pi" horiz-adv-x="483" unicode="π" d="M390 0v450h-296v-450h-44v491h384v-491h-44z"/>
<glyph glyph-name="rho" horiz-adv-x="477" unicode="ρ" d="M239 455q-26 0 -52 -8t-48 -25.5t-35.5 -45.5t-13.5 -68l1 -222q54 -29 95 -39.5t73 -10.5h2q127 0 127 142l-1 130q0 40 -13.5 68t-35 45.5t-48 25.5t-51.5 8zM432 166q0 -83 -46 -127.5t-124 -44.5q-27 0 -69 8t-102 38v-244h-44v528q0 40 16 72t42.5 54.5t61 34.5 t71.5 12t72 -12t62 -34.5t43.5 -54.5t16.5 -72v-158z"/>
<glyph glyph-name="sigma1" horiz-adv-x="439" unicode="ς" d="M227 31q22 0 46 5t43 17t31.5 31.5t12.5 48.5q0 21 -7.5 35.5t-20 25t-29.5 17t-36 11.5l-51 9q-30 5 -60 12.5t-54.5 21.5t-40 36t-15.5 57q0 61 45.5 99.5t123.5 38.5q51 0 91 -9t74 -32l-23 -34q-62 37 -139 37q-58 0 -93 -27t-35 -73q0 -21 10.5 -36t29 -25t44 -16.5 t55.5 -11.5t61.5 -12.5t57 -22t41.5 -39t16 -64.5q0 -60 -47 -98.5t-133 -38.5q-48 0 -95 10t-92 42l24 35q37 -26 77 -38t88 -12z"/>
<glyph glyph-name="sigma" horiz-adv-x="494" unicode="σ" d="M388 304q0 40 -13 68t-34 45.5t-48 25.5t-54 8q-26 0 -52.5 -8t-48 -25.5t-35 -45.5t-13.5 -68v-120q0 -40 14 -68.5t35.5 -46.5t48 -26t51.5 -8t51.5 8t48.5 26t35.5 46.5t13.5 68.5v120zM358 450q38 -20 56.5 -56t18.5 -74v-144q0 -46 -16.5 -80t-43.5 -56.5t-62 -33.5 t-73 -11t-73 12t-61.5 34t-42.5 54t-16 73v152q0 40 16 72t43 54.5t62 34.5t72 12h244v-43h-124z"/>
<glyph glyph-name="tau" horiz-adv-x="351" unicode="τ" d="M169 151q0 -63 21 -88.5t73 -25.5q13 0 29 1.5t36 5.5l8 -39q-23 -7 -45 -8.5t-34 -1.5q-73 0 -103 33.5t-30 109.5l-1 312h-106v42h301v-42h-149v-299z"/>
<glyph glyph-name="upsilon" horiz-adv-x="481" unicode="υ" d="M434 173q0 -44 -15.5 -77t-42.5 -55.5t-62 -34t-74 -11.5t-74 12t-61.5 35t-42 55.5t-15.5 74.5v320h45v-308q0 -40 13.5 -68t34.5 -45.5t48 -25.5t54 -8t53.5 8t47.5 25.5t34 45.5t13 68v308h44v-319z"/>
<glyph glyph-name="phi" horiz-adv-x="602" unicode="φ" d="M510 317q0 74 -30.5 103.5t-82.5 29.5q-14 0 -36 -6.5t-42 -14.5v-393q91 2 141 43t50 117v121zM555 183q0 -45 -19 -80t-52 -59.5t-76 -37t-89 -12.5v-198h-44v198q-50 0 -92 13.5t-72 37.5t-47 58t-17 75v145q0 31 9.5 58t26.5 49t39 37t48 21q3 -10 5.5 -20t4.5 -21 q-39 -14 -63.5 -48.5t-24.5 -91.5v-111q0 -71 46.5 -115t136.5 -45v424q39 20 69.5 28t54.5 8q69 0 112.5 -41t43.5 -126v-146z"/>
<glyph glyph-name="chi" horiz-adv-x="401" unicode="χ" d="M333 0l-135 214l-135 -214h-55l164 251l-156 240h55l127 -203l129 203h55l-158 -239l165 -252h-56z"/>
<glyph glyph-name="psi" horiz-adv-x="599" unicode="ψ" d="M550 193q0 -47 -17 -83.5t-47 -62.5t-72 -39.5t-93 -13.5v-198h-45v198q-51 0 -93 15t-72 41t-46 62.5t-16 78.5v299h45v-285q0 -36 11.5 -66.5t34 -53.5t57 -36.5t79.5 -13.5v455h45v-455q48 1 82.5 14t57 35.5t33.5 53.5t11 67v285h45v-297z"/>
<glyph glyph-name="afii10023" horiz-adv-x="532" unicode="Ё" d="M228 785q0 -14 -9.5 -23t-23.5 -9q-12 0 -21.5 9t-9.5 23q0 13 9.5 22.5t21.5 9.5q14 0 23.5 -9.5t9.5 -22.5zM396 785q0 -14 -9 -23t-23 -9q-13 0 -22.5 9t-9.5 23q0 13 9.5 22.5t22.5 9.5q14 0 23 -9.5t9 -22.5zM57 0v689h443v-44h-395v-274h340v-43h-340v-285h395v-43 h-443z"/>
<glyph glyph-name="afii10051" horiz-adv-x="683" unicode="Ђ" d="M395 -24q40 0 75 11.5t61.5 34.5t42 59t15.5 86v108q0 81 -37.5 116.5t-109.5 35.5q-46 0 -98 -20.5t-98 -53.5v-353h-48v644h-189v45h518v-45h-281v-241q63 42 115.5 56t88.5 14q91 0 139 -46.5t48 -138.5v-129q0 -51 -17.5 -93t-49 -71.5t-76 -46t-99.5 -16.5v44z"/>
<glyph glyph-name="afii10052" horiz-adv-x="502" unicode="Ѓ" d="M226 751l136 108l35 -37l-151 -93zM107 645v-645h-47v689h443v-44h-396z"/>
<glyph glyph-name="afii10053" horiz-adv-x="497" unicode="Є" d="M293 696q52 0 95.5 -12t82.5 -39l-26 -39q-32 23 -71 34.5t-81 11.5q-36 0 -71 -11t-62.5 -34.5t-44 -60t-16.5 -87.5v-84h275v-43h-275v-100q0 -51 17 -88t44 -61t61 -35.5t69 -11.5q88 0 157 49l25 -37q-27 -20 -73 -37.5t-106 -17.5q-57 0 -101.5 17t-76 48t-48 73 t-16.5 93v244q0 50 17.5 92t49.5 72t76.5 47t98.5 17z"/>
<glyph glyph-name="afii10054" horiz-adv-x="536" unicode="Ѕ" d="M504 181q0 -44 -17 -78.5t-48 -58.5t-74.5 -37t-97.5 -13q-68 0 -126 17.5t-111 50.5l27 37q46 -28 100 -45t111 -17q39 0 73 9.5t59 27.5t39.5 45t14.5 62q0 40 -16.5 65.5t-43 41.5t-60.5 25t-68 16q-40 7 -79.5 19.5t-70.5 33.5t-50.5 53t-19.5 79q0 41 15 75t43 58 t68.5 37.5t90.5 13.5q55 0 107 -10t98 -35l-22 -42q-43 23 -91 33t-96 10q-32 0 -61.5 -8t-52 -25.5t-36.5 -44.5t-14 -64q0 -36 16.5 -59.5t43.5 -39t60.5 -24.5t66.5 -16q47 -10 87.5 -23t70.5 -34t47 -53.5t17 -81.5z"/>
<glyph glyph-name="afii10055" horiz-adv-x="216" unicode="І" d="M84 0v689h48v-689h-48z"/>
<glyph glyph-name="afii10056" horiz-adv-x="216" unicode="Ї" d="M57 829q0 -13 -9.5 -22.5t-23.5 -9.5q-12 0 -21.5 9.5t-9.5 22.5q0 14 9.5 23t21.5 9q14 0 23.5 -9t9.5 -23zM225 829q0 -13 -9 -22.5t-23 -9.5q-13 0 -22.5 9.5t-9.5 22.5q0 14 9.5 23t22.5 9q14 0 23 -9t9 -23zM84 0v689h48v-689h-48z"/>
<glyph glyph-name="afii10057" horiz-adv-x="504" unicode="Ј" d="M420 225q0 -51 -15.5 -93.5t-45.5 -73t-74.5 -48t-101.5 -17.5q-47 0 -87.5 12.5t-69.5 30.5l23 39q32 -19 64 -29t67 -10q41 0 76.5 11.5t61 36t40 62t14.5 88.5v456h48v-465z"/>
<glyph glyph-name="afii10058" horiz-adv-x="904" unicode="Љ" d="M832 188q0 62 -42 102.5t-117 40.5h-207v-287h207q33 0 62 8.5t50.5 26t34 44.5t12.5 65zM881 188q0 -92 -57 -140t-150 -48h-256v645h-227v-278q0 -83 -10 -145.5t-29 -109t-46.5 -79t-62.5 -55.5l-25 38q31 22 54.5 50.5t39.5 71t24.5 104t8.5 148.5v299h321v-314h217 q50 0 87 -16.5t62 -42.5t37 -60t12 -68z"/>
<glyph glyph-name="afii10059" horiz-adv-x="895" unicode="Њ" d="M822 188q0 62 -42 102t-117 40h-207v-286h208q33 0 62 8.5t50.5 26t33.5 44.5t12 65zM871 188q0 -92 -56.5 -140t-150.5 -48h-256v330h-306v-330h-47v689h47v-316h306v316h48v-316h217q50 0 87 -16t62 -42t37 -59.5t12 -67.5z"/>
<glyph glyph-name="afii10060" horiz-adv-x="683" unicode="Ћ" d="M589 0v270q0 82 -34 119.5t-109 37.5q-45 0 -99.5 -20.5t-100.5 -53.5v-353h-48v644h-189v45h518v-45h-281v-240q61 41 115 55t90 14q95 0 140.5 -49t45.5 -140v-284h-48z"/>
<glyph glyph-name="afii10061" horiz-adv-x="534" unicode="Ќ" d="M199 751l136 108l35 -37l-151 -93zM56 0v689h47v-309h148q19 0 38 4.5t36.5 16.5t33 33t26.5 53l69 202h45l-64 -194q-17 -50 -40.5 -85.5t-61.5 -46.5q24 -6 41.5 -18t30 -29.5t21.5 -40t17 -47.5l70 -228h-50l-69 225q-11 34 -24.5 56t-30 35t-36 17.5t-40.5 4.5h-160 v-338h-47z"/>
<glyph glyph-name="afii10062" horiz-adv-x="487" unicode="Ў" d="M160 811q6 -33 31.5 -53t57.5 -20q33 0 56.5 17.5t31.5 55.5h39q-3 -19 -11.5 -38.5t-23.5 -35.5t-38 -26t-54 -10q-32 0 -55 10t-39 26t-24 35.5t-10 38.5h39zM258 139q-17 -43 -33.5 -71t-34.5 -45t-38.5 -24t-45.5 -7h-37v46h29q30 0 54 15t44 62l21 50l-204 524h50 l179 -466h3l179 466h49z"/>
<glyph glyph-name="afii10145" horiz-adv-x="590" unicode="Џ" d="M539 689v-689h-222v-159h-51v159h-214v689h48v-646h390v646h49z"/>
<glyph glyph-name="afii10017" horiz-adv-x="568" unicode="А" d="M284 630q-4 -12 -14.5 -44.5t-25 -75t-30.5 -90.5t-30.5 -90.5t-25.5 -75t-15 -44.5h284q-4 12 -14.5 44.5t-25 75t-31 90.5t-31 91t-25.5 75t-15 44h-1zM501 0q-14 42 -29 83t-30 83h-315q-14 -42 -28 -83t-28 -83h-51l238 689h54l240 -689h-51z"/>
<glyph glyph-name="afii10018" horiz-adv-x="542" unicode="Б" d="M469 188q0 62 -42 102.5t-117 40.5h-208v-287h208q33 0 62 8.5t50.5 26t34 44.5t12.5 65zM518 188q0 -92 -57 -140t-150 -48h-256v689h394v-45h-347v-269h218q51 0 88.5 -16.5t61.5 -42.5t36 -60t12 -68z"/>
<glyph glyph-name="afii10019" horiz-adv-x="574" unicode="В" d="M481 188q0 35 -12.5 63t-33 48t-47.5 31t-57 11h-227v-298h225q32 0 59.5 9t48 27t32.5 45.5t12 63.5zM468 514q0 36 -12.5 60.5t-33.5 40.5t-48.5 23t-57.5 7h-212v-260h224q26 0 51.5 8t45 24t31.5 40t12 57zM529 188q0 -37 -12.5 -71t-36.5 -60t-59.5 -41.5 t-80.5 -15.5h-284v689l272 -1q48 0 83.5 -14t59.5 -37.5t35.5 -55t11.5 -66.5q0 -21 -5 -43t-17.5 -42.5t-33.5 -38t-52 -28.5q34 -11 56.5 -30.5t36.5 -44t20 -50.5t6 -50z"/>
<glyph glyph-name="afii10020" horiz-adv-x="502" unicode="Г" d="M107 645v-645h-47v689h443v-44h-396z"/>
<glyph glyph-name="afii10021" horiz-adv-x="667" unicode="Д" d="M220 645l-10 -267q-3 -68 -10 -120t-18.5 -91.5t-27.5 -68.5t-36 -53h419v600h-317zM60 46q25 27 43.5 56t31.5 68.5t20 94.5t10 133l11 291h410v-644h51v-192h-47v147h-534v-147h-46v193h50z"/>
<glyph glyph-name="afii10022" horiz-adv-x="532" unicode="Е" d="M57 0v689h443v-44h-395v-274h340v-43h-340v-285h395v-43h-443z"/>
<glyph glyph-name="afii10024" horiz-adv-x="838" unicode="Ж" d="M395 338h-127q-21 0 -40.5 -4.5t-36 -17t-30.5 -34.5t-24 -57l-65 -225h-50l67 227q15 51 38 88t71 48q-38 11 -62 45.5t-39 85.5l-61 195h46l65 -202q10 -33 25.5 -53.5t33.5 -32.5t37 -16.5t38 -4.5h114v309h48v-309h114q19 0 38 4.5t37 16.5t33 32.5t26 53.5l65 202 h46l-61 -195q-16 -51 -40 -85.5t-62 -45.5q24 -6 41.5 -18t30.5 -30t21.5 -40.5t16.5 -47.5l67 -227h-50l-66 225q-10 35 -23.5 57t-30 34.5t-36 17t-41.5 4.5h-126v-338h-48v338z"/>
<glyph glyph-name="afii10025" horiz-adv-x="503" unicode="З" d="M244 698q38 0 74.5 -10t65 -31.5t45.5 -54t17 -77.5q0 -26 -7 -51.5t-21.5 -47.5t-36 -38.5t-50.5 -25.5q32 -10 54.5 -29t36.5 -42.5t20 -49t6 -48.5q0 -48 -18.5 -85.5t-50 -63t-73 -38.5t-88.5 -13q-69 0 -119 20.5t-82 44.5l28 36q31 -25 76 -42t95 -17 q37 0 70.5 10.5t59 30.5t40 48.5t14.5 63.5q0 36 -12 63.5t-31.5 47t-44.5 29.5t-51 10h-82v42h82q20 0 43.5 8.5t44 26t34.5 44.5t14 64q0 36 -14.5 61t-37 41t-51 23.5t-56.5 7.5q-47 0 -93 -15.5t-75 -39.5l-28 36q47 32 93.5 46.5t108.5 14.5z"/>
<glyph glyph-name="afii10026" horiz-adv-x="613" unicode="И" d="M378 414l-271 -414h-51v689h48v-615l128 193l276 422h49v-689h-48v612z"/>
<glyph glyph-name="afii10027" horiz-adv-x="613" unicode="Й" d="M202 825q6 -33 31.5 -53t57.5 -20q33 0 56.5 17.5t31.5 55.5h39q-3 -19 -11.5 -38.5t-23.5 -35.5t-38 -26t-54 -10q-32 0 -55 10t-39 26t-24 35.5t-10 38.5h39zM378 414l-271 -414h-51v689h48v-615l128 193l276 422h49v-689h-48v612z"/>
<glyph glyph-name="afii10028" horiz-adv-x="534" unicode="К" d="M56 0v689h47v-309h148q19 0 38 4.5t36.5 16.5t33 33t26.5 53l69 202h45l-64 -194q-17 -50 -40.5 -85.5t-61.5 -46.5q24 -6 41.5 -18t30 -29.5t21.5 -40t17 -47.5l70 -228h-50l-69 225q-11 34 -24.5 56t-30 35t-36 17.5t-40.5 4.5h-160v-338h-47z"/>
<glyph glyph-name="afii10029" horiz-adv-x="590" unicode="Л" d="M175 645v-278q0 -83 -10 -145.5t-29.5 -109t-47 -79t-63.5 -55.5l-24 40q30 22 53 50t39.5 70.5t25 103.5t8.5 148v299h408v-689h-49v645h-311z"/>
<glyph glyph-name="afii10030" horiz-adv-x="707" unicode="М" d="M603 577h-1q-29 -62 -55.5 -118t-52.5 -110q-31 -62 -59.5 -120.5t-57.5 -118.5h-40l-122 245l-110 223h-2v-578h-48v689h48q38 -79 76.5 -156.5t76.5 -155.5q25 -52 49.5 -103.5t50.5 -102.5l36 72l63 134q38 78 76.5 156.5t74.5 155.5h45v-689h-48v577z"/>
<glyph glyph-name="afii10031" horiz-adv-x="596" unicode="Н" d="M492 0v329h-390v-329h-47v689h47v-317h390v317h50v-689h-50z"/>
<glyph glyph-name="afii10032" horiz-adv-x="587" unicode="О" d="M488 459q0 49 -16 85.5t-43 60.5t-62 35.5t-74 11.5q-40 0 -75.5 -11.5t-61.5 -35.5t-41.5 -60.5t-15.5 -85.5v-231q0 -51 17 -87t44.5 -59.5t62.5 -34.5t70 -11q40 0 75.5 11.5t62 35t42 59.5t15.5 86v231zM536 220q0 -51 -17.5 -93t-49 -71.5t-76.5 -46t-100 -16.5 q-56 0 -100.5 16.5t-76 47t-48.5 73t-17 93.5v245q0 50 16.5 92t48 72t76.5 47t101 17q55 0 100 -17t76.5 -47.5t49 -72.5t17.5 -91v-248z"/>
<glyph glyph-name="afii10033" horiz-adv-x="590" unicode="П" d="M490 0v645h-390v-645h-48v689h487v-689h-49z"/>
<glyph glyph-name="afii10034" horiz-adv-x="539" unicode="Р" d="M467 492q0 35 -12 63t-32.5 48t-48 31t-58.5 11h-214v-304h214q31 0 58.5 10t48 29.5t32.5 47.5t12 64zM516 492q0 -36 -12.5 -71t-37 -63t-60 -45t-81.5 -17h-223v-296h-47v689h270q48 0 84 -17.5t60 -45.5t35.5 -63t11.5 -71z"/>
<glyph glyph-name="afii10035" horiz-adv-x="502" unicode="С" d="M293 696q52 0 95.5 -12t82.5 -39l-26 -39q-32 23 -71 34.5t-81 11.5q-36 0 -71 -11t-62.5 -34.5t-44 -60t-16.5 -87.5v-227q0 -51 17 -88t44 -61t61 -35.5t69 -11.5q88 0 157 49l25 -37q-27 -20 -73 -37.5t-106 -17.5q-55 0 -100 17t-76.5 48t-48.5 73t-17 93v244 q0 50 17.5 92t49.5 72t76.5 47t98.5 17z"/>
<glyph glyph-name="afii10036" horiz-adv-x="513" unicode="Т" d="M281 644v-644h-48v644h-216v45h478v-45h-214z"/>
<glyph glyph-name="afii10037" horiz-adv-x="487" unicode="У" d="M258 139q-17 -43 -33.5 -71t-34.5 -45t-38.5 -24t-45.5 -7h-37v46h29q30 0 54 15t44 62l21 50l-204 524h50l179 -466h3l179 466h49z"/>
<glyph glyph-name="afii10038" horiz-adv-x="726" unicode="Ф" d="M386 0h-47v58q-70 1 -123.5 22.5t-89.5 56t-54.5 80.5t-18.5 97v99q0 49 18 94.5t53.5 80t89 55.5t125.5 23v30h47v-30q72 -1 125.5 -22t89 -56t53.5 -80.5t18 -94.5v-99q0 -51 -18.5 -96.5t-54.5 -80.5t-89.5 -56.5t-123.5 -22.5v-58zM624 405q0 49 -16.5 89t-47.5 68 t-75 43.5t-99 15.5v-519q51 0 95 15t75.5 42.5t49.5 67t18 89.5v89zM101 316q0 -50 18 -89.5t49.5 -67t75.5 -42.5t95 -15v519q-55 0 -99 -15.5t-75 -43.5t-47.5 -68t-16.5 -89v-89z"/>
<glyph glyph-name="afii10039" horiz-adv-x="501" unicode="Х" d="M433 0l-183 311l-183 -311h-56l213 354l-198 335h56l168 -293l168 293h56l-198 -335l213 -354h-56z"/>
<glyph glyph-name="afii10040" horiz-adv-x="611" unicode="Ц" d="M545 0h-490v689h47v-646h390v646h50v-645h51v-191h-48v147z"/>
<glyph glyph-name="afii10041" horiz-adv-x="545" unicode="Ч" d="M80 689v-194q0 -44 7.5 -77.5t25.5 -56.5t47.5 -35t74.5 -12q53 0 107.5 18.5t98.5 47.5v309h48v-689h-48v331q-53 -33 -109.5 -47t-98.5 -14q-48 0 -85 11.5t-63 37t-39.5 66t-13.5 98.5v206h48z"/>
<glyph glyph-name="afii10042" horiz-adv-x="899" unicode="Ш" d="M844 689v-689h-789v689h48v-646h322v646h47v-646h324v646h48z"/>
<glyph glyph-name="afii10043" horiz-adv-x="913" unicode="Щ" d="M472 43h323v646h49v-645h51v-191h-47v147h-793v689h48v-646h322v646h47v-646z"/>
<glyph glyph-name="afii10044" horiz-adv-x="689" unicode="Ъ" d="M612 188q0 31 -11 57t-31 45t-50 30t-67 11h-207v-287h208q33 0 62 8.5t50.5 26t33.5 44.5t12 65zM661 188q0 -92 -56.5 -140t-149.5 -48h-257v644h-192v45h240v-314h217q50 0 87.5 -16.5t62 -42.5t36.5 -60t12 -68z"/>
<glyph glyph-name="afii10045" horiz-adv-x="699" unicode="Ы" d="M591 0v689h48v-689h-48zM471 188q0 62 -42 102.5t-117 40.5h-208v-287h208q33 0 62 8.5t50.5 26t34 44.5t12.5 65zM520 188q0 -92 -57 -140t-150 -48h-256v689h47v-314h218q50 0 87 -16.5t62 -42.5t37 -60t12 -68z"/>
<glyph glyph-name="afii10046" horiz-adv-x="543" unicode="Ь" d="M471 188q0 62 -42 102.5t-117 40.5h-208v-287h208q33 0 62 8.5t50.5 26t34 44.5t12.5 65zM520 188q0 -92 -57 -140t-150 -48h-256v689h47v-314h218q50 0 87 -16.5t62 -42.5t37 -60t12 -68z"/>
<glyph glyph-name="afii10047" horiz-adv-x="499" unicode="Э" d="M217 697q59 0 102 -16t70.5 -46t41 -72.5t13.5 -94.5v-240q0 -51 -17 -94t-49 -74.5t-78 -49t-104 -17.5q-60 0 -105.5 17.5t-73.5 37.5l25 38q70 -49 158 -49q39 0 74.5 12t62.5 37t43 62t16 88v100h-281v43h281v80q0 102 -49.5 147.5t-130.5 45.5q-42 0 -83.5 -12 t-73.5 -35l-25 38q79 54 183 54z"/>
<glyph glyph-name="afii10048" horiz-adv-x="721" unicode="Ю" d="M622 459q0 49 -14 85.5t-38.5 60.5t-57.5 35.5t-72 11.5q-40 0 -73.5 -11.5t-57.5 -35.5t-37 -60.5t-13 -85.5v-231q0 -51 15 -87t40 -59.5t57.5 -34.5t68.5 -11q40 0 73.5 11.5t57.5 35t37.5 59.5t13.5 86v231zM670 220q0 -51 -15.5 -93t-44.5 -71.5t-72 -46t-98 -16.5 q-56 0 -98.5 16.5t-71.5 47t-44 73t-15 93.5v106h-106v-329h-48v689h48v-317h106v96q0 50 14.5 92t43.5 72t72 47t99 17q55 0 97.5 -17t72 -47.5t45 -72.5t15.5 -91v-248z"/>
<glyph glyph-name="afii10049" horiz-adv-x="576" unicode="Я" d="M105 492q0 -36 12.5 -62.5t34 -43.5t50 -25.5t60.5 -8.5h212v293h-220q-65 0 -107 -40.5t-42 -112.5zM58 492q0 38 11.5 73.5t35 63t59.5 44t84 16.5h274v-689h-48v310h-195q-21 0 -40.5 -5t-36.5 -17.5t-32 -34t-25 -55.5l-58 -198h-49l60 206q13 43 31 72.5t56 43.5 q-34 9 -58 26t-39.5 39.5t-22.5 49t-7 55.5z"/>
<glyph glyph-name="afii10065" horiz-adv-x="466" unicode="а" d="M214 235q-20 0 -43.5 -3t-44 -13.5t-34 -31t-13.5 -54.5q0 -26 9 -44.5t24.5 -30.5t36 -18t43.5 -6q22 0 45.5 6.5t47.5 16.5t47 22.5t43 24.5v131h-161zM375 61h-1q-36 -23 -64.5 -36t-51 -20t-40.5 -9t-32 -2q-69 0 -111.5 35t-42.5 104q0 39 16 66t40 43.5t53 24 t56 7.5h178v49q0 132 -139 132q-35 0 -72 -10t-75 -36l-24 36q42 28 84 39.5t90 11.5q51 0 85.5 -11.5t55.5 -33.5t30 -52.5t9 -68.5v-330h-36z"/>
<glyph glyph-name="afii10066" horiz-adv-x="479" unicode="б" d="M389 285q0 40 -11 68t-30.5 45.5t-46.5 25.5t-58 8q-27 0 -54 -9t-48.5 -28t-35.5 -48.5t-14 -69.5v-95q0 -40 11.5 -68t31.5 -46t46.5 -26t56.5 -8q32 0 60 8.5t48.5 26.5t32 46t11.5 67v103zM393 683q-38 -16 -61.5 -24t-48.5 -18q-53 -20 -87.5 -41.5t-55.5 -49 t-31 -64.5t-16 -89q1 0 1.5 -0.5t1.5 -0.5q13 20 31.5 34.5t39.5 24.5t42.5 14.5t40.5 4.5q88 0 135.5 -46.5t47.5 -128.5v-125q0 -42 -14.5 -75t-40.5 -56.5t-62.5 -36t-80.5 -12.5q-90 0 -140 49t-50 130v126q0 39 2 76t8 71.5t18 66t32 60.5q21 30 54.5 51t71 37.5t76 30 t69.5 28.5z"/>
<glyph glyph-name="afii10067" horiz-adv-x="464" unicode="в" d="M370 363q0 24 -9 40.5t-24.5 27t-35 15t-40.5 4.5h-168v-171h174q19 0 38 5t33 15.5t23 26t9 37.5zM379 137q0 22 -9 40.5t-24 32t-34.5 20.5t-41.5 7h-177v-197h174q49 0 80.5 24.5t31.5 72.5zM424 137q0 -27 -9.5 -52t-28 -44t-46 -30t-63.5 -11h-229v491h221 q39 0 66.5 -10.5t45.5 -27.5t26.5 -40.5t8.5 -48.5q0 -14 -3.5 -29.5t-12 -29.5t-23 -26.5t-36.5 -20.5q23 -9 39 -23t25.5 -30.5t14 -34.5t4.5 -33z"/>
<glyph glyph-name="afii10068" horiz-adv-x="392" unicode="г" d="M94 449v-449h-45v491h341v-42h-296z"/>
<glyph glyph-name="afii10069" horiz-adv-x="536" unicode="д" d="M421 451h-246l-9 -179q-5 -84 -17.5 -141t-40.5 -92h313v412zM503 39v-161h-42v122h-408v-122h-42v160h18.5t18.5 1q17 14 30.5 33.5t23 47.5t15 66.5t8.5 91.5q2 54 4.5 106.5t5.5 106.5h330v-452h38z"/>
<glyph glyph-name="afii10070" horiz-adv-x="466" unicode="е" d="M382 308q0 40 -12.5 68t-32.5 46t-45 26t-51 8q-27 0 -53.5 -8.5t-47 -26.5t-33.5 -46.5t-13 -67.5v-41h288v42zM94 227v-46q0 -41 13 -69t34 -45.5t48 -25.5t56 -8q41 0 74 14t59 39l28 -32q-31 -31 -72 -45.5t-91 -14.5q-42 0 -77.5 11.5t-61.5 34t-40.5 56t-14.5 77.5 v139q0 42 14 76t39.5 58.5t61 37.5t77.5 13q41 0 75 -13.5t59 -37.5t38.5 -58t13.5 -74v-87h-333z"/>
<glyph glyph-name="afii10072" horiz-adv-x="674" unicode="ж" d="M315 0v233h-104q-18 0 -32.5 -3t-27 -11.5t-22 -23.5t-16.5 -40l-45 -155h-46l48 161q11 37 26.5 63t50.5 34q-29 8 -44.5 33t-26.5 61l-45 140h45l47 -147q7 -23 18 -37t23.5 -22t26.5 -10.5t28 -2.5h96v219h44v-219h96q14 0 28 2.5t26.5 10.5t22.5 22t18 37l47 147h45 l-44 -140q-11 -36 -26.5 -61t-44.5 -33q35 -8 50.5 -34t26.5 -63l48 -161h-47l-45 155q-7 25 -16.5 40t-21.5 23.5t-27 11.5t-33 3h-103v-233h-44z"/>
<glyph glyph-name="afii10073" horiz-adv-x="411" unicode="з" d="M177 -4q-54 0 -94 13.5t-70 35.5q6 8 13 16.5t14 16.5q26 -20 61.5 -32t74.5 -12q61 0 99 29t38 74q0 24 -9 42t-24 30t-34 18.5t-39 6.5h-68v38h68q16 0 34 6t33 17.5t24.5 29t9.5 40.5q0 24 -11 41t-28 28t-38 16t-42 5q-37 0 -71 -10.5t-58 -29.5q-8 8 -14.5 16 t-13.5 17q39 28 78 38t84 10q34 0 63 -9t50.5 -25.5t33.5 -40t12 -53.5q0 -32 -18.5 -65t-61.5 -48q25 -9 41 -23t25.5 -30t13.5 -33t4 -30q0 -32 -13 -58.5t-36.5 -45.5t-57 -29t-73.5 -10z"/>
<glyph glyph-name="afii10074" horiz-adv-x="486" unicode="и" d="M389 420q-33 -48 -66 -94.5t-67 -94.5q-41 -58 -81 -116t-81 -115h-44v490h44v-422h2l133 189l163 233h43v-490h-44v420h-2z"/>
<glyph glyph-name="afii10075" horiz-adv-x="486" unicode="й" d="M154 674q6 -33 31.5 -53t57.5 -20q33 0 56.5 17.5t31.5 55.5h39q-3 -19 -11.5 -38.5t-23.5 -35.5t-38 -26t-54 -10q-32 0 -55 10t-39 26t-24 35.5t-10 38.5h39zM389 420q-33 -48 -66 -94.5t-67 -94.5q-41 -58 -81 -116t-81 -115h-44v490h44v-422h2l133 189l163 233h43 v-490h-44v420h-2z"/>
<glyph glyph-name="afii10076" horiz-adv-x="472" unicode="к" d="M65 0v492h45v-219h132q29 0 53.5 13t41.5 59l55 147h45l-52 -140q-13 -35 -27.5 -60.5t-43.5 -33.5q18 -4 29.5 -13t20 -21.5t15 -28.5t12.5 -34l56 -161h-47l-53 155q-8 24 -18 39.5t-22 24t-26 11.5t-32 3h-139v-233h-45z"/>
<glyph glyph-name="afii10077" horiz-adv-x="475" unicode="л" d="M149 450v-186q0 -62 -8.5 -107t-24.5 -77.5t-38.5 -55t-50.5 -39.5l-22 34q24 16 42.5 35t31 48.5t19.5 72t7 105.5v210h317v-490h-45v450h-228z"/>
<glyph glyph-name="afii10078" horiz-adv-x="573" unicode="м" d="M477 394h-1l-81 -152l-90 -165h-35l-54 98l-119 219h-1v-394h-46v490h43l116 -214l79 -146l77 145l117 215h40v-490h-45v394z"/>
<glyph glyph-name="afii10079" horiz-adv-x="487" unicode="н" d="M392 0v229h-297v-229h-45v490h45v-220h297v220h45v-490h-45z"/>
<glyph glyph-name="afii10080" horiz-adv-x="479" unicode="о" d="M389 308q0 40 -13.5 68t-34.5 45.5t-47.5 25.5t-52.5 8q-27 0 -54 -8t-48 -25.5t-34.5 -45.5t-13.5 -68v-125q0 -41 12.5 -69t33 -45.5t47.5 -25.5t57 -8t56.5 8.5t47 26.5t32.5 46t12 67v125zM433 173q0 -84 -53 -131.5t-141 -47.5q-43 0 -78.5 12.5t-61 36t-39.5 56 t-14 73.5v150q0 40 15.5 72.5t42 55t61.5 35t75 12.5q41 0 76.5 -12.5t61.5 -35t40.5 -55t14.5 -72.5v-149z"/>
<glyph glyph-name="afii10081" horiz-adv-x="483" unicode="п" d="M390 0v450h-296v-450h-44v491h384v-491h-44z"/>
<glyph glyph-name="afii10082" horiz-adv-x="480" unicode="р" d="M94 85q55 -28 94 -39t71 -11q66 0 99 33.5t33 105.5v145q0 73 -30 104t-83 31q-34 0 -84 -21t-100 -55v-293zM86 489l8 -64q36 22 64 36.5t50.5 22t40 10.5t31.5 3q72 0 113.5 -41t41.5 -126v-166q0 -83 -45.5 -127t-126.5 -44q-30 0 -69.5 8t-99.5 38v-242h-44v692h36z "/>
<glyph glyph-name="afii10083" horiz-adv-x="410" unicode="с" d="M239 498q38 0 78.5 -10.5t70.5 -36.5l-28 -36q-29 23 -60.5 32t-56.5 9q-28 0 -54.5 -8t-47.5 -25.5t-33.5 -45.5t-12.5 -68v-125q0 -39 12.5 -67t33.5 -46t47.5 -26t53.5 -8q24 0 59 8.5t59 27.5l27 -34q-31 -23 -70 -33.5t-77 -10.5q-44 0 -79.5 13t-60.5 37t-38 56.5 t-13 71.5v148q0 40 14 72.5t39.5 55.5t60 36t76.5 13z"/>
<glyph glyph-name="afii10084" horiz-adv-x="406" unicode="т" d="M226 449v-449h-45v449h-167v42h379v-42h-167z"/>
<glyph glyph-name="afii10085" horiz-adv-x="428" unicode="у" d="M116 -198l72 200l-28 29l-153 459h47q20 -57 38 -114t38 -115l75 -222h1l81 222q21 58 42 115t41 114h47q-63 -174 -126.5 -344.5t-126.5 -343.5h-48z"/>
<glyph glyph-name="afii10086" horiz-adv-x="591" unicode="ф" d="M318 37q48 1 82 14.5t56.5 36.5t33 54t10.5 66v84q0 35 -10.5 66t-33 54.5t-56.5 37t-82 13.5v-426zM274 463q-50 -2 -85 -15.5t-57 -36.5t-31.5 -53.5t-9.5 -65.5v-84q0 -35 10.5 -66t32.5 -54t57 -36.5t83 -14.5v426zM274 -204v198q-52 0 -94 15.5t-72 42.5t-46 63 t-16 77v115q0 41 15.5 77.5t45 63.5t72 42.5t95.5 15.5v182h44v-182q54 0 96 -15.5t71.5 -42.5t45 -63.5t15.5 -77.5v-113q0 -41 -16.5 -77.5t-46.5 -63.5t-72 -43t-93 -16v-198h-44z"/>
<glyph glyph-name="afii10087" horiz-adv-x="401" unicode="х" d="M333 0l-135 214l-135 -214h-55l164 251l-156 240h55l127 -203l129 203h55l-158 -239l165 -252h-56z"/>
<glyph glyph-name="afii10088" horiz-adv-x="498" unicode="ц" d="M429 0h-376v491h43v-451h295v451h43v-452h38v-161h-43v122z"/>
<glyph glyph-name="afii10089" horiz-adv-x="435" unicode="ч" d="M184 185q-32 0 -60 8.5t-50 27t-34.5 48t-12.5 72.5v150h44v-141q0 -122 118 -122q40 0 80.5 14t78.5 37v212h45v-491h-45v233q-48 -29 -90.5 -38.5t-73.5 -9.5z"/>
<glyph glyph-name="afii10090" horiz-adv-x="727" unicode="ш" d="M674 490v-490h-622v490h44v-450h244v450h45v-450h245v450h44z"/>
<glyph glyph-name="afii10091" horiz-adv-x="736" unicode="щ" d="M676 0h-618v490h46v-450h242v450h45v-450h245v450h44v-451h39v-162h-43v123z"/>
<glyph glyph-name="afii10092" horiz-adv-x="542" unicode="ъ" d="M475 137q0 41 -28 68.5t-85 27.5h-162v-192h161q53 0 83.5 23.5t30.5 72.5zM200 273h166q41 0 70.5 -11.5t48 -30.5t27 -43.5t8.5 -50.5q0 -68 -43.5 -102.5t-119.5 -34.5h-201v448h-150v42h194v-217z"/>
<glyph glyph-name="afii10093" horiz-adv-x="561" unicode="ы" d="M94 273h166q42 0 71 -11.5t48 -30.5t27.5 -43.5t8.5 -50.5q0 -68 -44 -102.5t-119 -34.5h-202v491h44v-218zM369 137q0 41 -27.5 68.5t-85.5 27.5h-162v-192h161q54 0 84 23.5t30 72.5zM467 0v490h44v-490h-44z"/>
<glyph glyph-name="afii10094" horiz-adv-x="433" unicode="ь" d="M94 273h166q42 0 71 -11.5t48 -30.5t27.5 -43.5t8.5 -50.5q0 -68 -44 -102.5t-119 -34.5h-202v491h44v-218zM369 137q0 41 -27.5 68.5t-85.5 27.5h-162v-192h161q54 0 84 23.5t30 72.5z"/>
<glyph glyph-name="afii10095" horiz-adv-x="401" unicode="э" d="M165 -5q-38 0 -78 9.5t-70 34.5l25 36q28 -22 62 -30t58 -8q29 0 55.5 8t47 25.5t33 45.5t12.5 67v50h-214v41h214v39q0 80 -36 111.5t-98 31.5q-12 0 -28 -2.5t-32.5 -7.5t-32.5 -12.5t-29 -17.5l-28 33q33 26 75 37.5t80 11.5q90 0 132.5 -47t42.5 -124v-152 q0 -40 -13.5 -73t-38 -57t-60 -37t-79.5 -13z"/>
<glyph glyph-name="afii10096" horiz-adv-x="585" unicode="ю" d="M496 308q0 40 -11.5 68t-31 45.5t-44.5 25.5t-51 8q-27 0 -52.5 -8t-45 -25.5t-31 -45.5t-11.5 -68v-125q0 -41 11 -69t29.5 -45.5t44 -25.5t55.5 -8t55 8.5t43.5 26.5t29 46t10.5 67v125zM540 173q0 -84 -48 -131.5t-136 -47.5q-87 0 -135 48.5t-48 129.5v57h-80v-229 h-45v490h45v-221h80v53q0 40 14 72.5t38.5 55t58 35t73.5 12.5q83 0 133 -47t50 -128v-149z"/>
<glyph glyph-name="afii10097" horiz-adv-x="457" unicode="я" d="M85 351q0 -24 8.5 -41.5t23.5 -29.5t34.5 -17.5t41.5 -5.5h172v193h-172q-22 0 -41.5 -6t-34.5 -18t-23.5 -31t-8.5 -44zM41 351q0 28 9.5 53.5t28 45t46.5 31t65 11.5h219v-492h-44v217h-162q-32 -1 -55.5 -16.5t-35.5 -59.5l-39 -141h-46l41 146q8 29 21.5 51t41.5 33 q-45 13 -67.5 46.5t-22.5 74.5z"/>
<glyph glyph-name="afii10071" horiz-adv-x="466" unicode="ё" d="M188 652q0 -13 -9.5 -22.5t-23.5 -9.5q-12 0 -21.5 9.5t-9.5 22.5q0 14 9.5 23t21.5 9q14 0 23.5 -9t9.5 -23zM356 652q0 -13 -9 -22.5t-23 -9.5q-13 0 -22.5 9.5t-9.5 22.5q0 14 9.5 23t22.5 9q14 0 23 -9t9 -23zM382 308q0 40 -12.5 68t-32.5 46t-45 26t-51 8 q-27 0 -53.5 -8.5t-47 -26.5t-33.5 -46.5t-13 -67.5v-41h288v42zM94 227v-46q0 -41 13 -69t34 -45.5t48 -25.5t56 -8q41 0 74 14t59 39l28 -32q-31 -31 -72 -45.5t-91 -14.5q-42 0 -77.5 11.5t-61.5 34t-40.5 56t-14.5 77.5v139q0 42 14 76t39.5 58.5t61 37.5t77.5 13 q41 0 75 -13.5t59 -37.5t38.5 -58t13.5 -74v-87h-333z"/>
<glyph glyph-name="afii10099" horiz-adv-x="490" unicode="ђ" d="M249 -24q33 0 60.5 8t47.5 25.5t31 45.5t11 67l-1 192q0 73 -28 104.5t-84 31.5q-18 0 -40.5 -6t-46.5 -16.5t-49 -24t-48 -28.5v-375h-45v579h-53v38h53v99h45v-99h234v-38h-234v-160q69 44 114.5 59.5t76.5 15.5q150 0 150 -168v-213q0 -86 -53 -132.5t-141 -46.5v42z "/>
<glyph glyph-name="afii10100" horiz-adv-x="392" unicode="ѓ" d="M94 449v-449h-45v491h341v-42h-296zM177 575l78 154l49 -19l-100 -147z"/>
<glyph glyph-name="afii10101" horiz-adv-x="404" unicode="є" d="M292 271v-40h-201v-47q0 -39 12.5 -67t33 -46t47 -26t54.5 -8q12 0 28 2t32 6.5t31.5 11.5t27.5 16l26 -34q-30 -23 -69.5 -33.5t-77.5 -10.5q-45 0 -80.5 13t-59.5 37t-37 56.5t-13 71.5v148q0 40 14 72.5t38.5 55.5t59.5 36t77 13q38 0 78.5 -10.5t70.5 -36.5l-28 -36 q-29 23 -60.5 32t-56.5 9q-29 0 -55.5 -8t-47 -25.5t-33 -45.5t-12.5 -68v-38h201z"/>
<glyph glyph-name="afii10102" horiz-adv-x="439" unicode="ѕ" d="M227 31q22 0 46 5t43 17t31.5 31.5t12.5 48.5q0 42 -33 63.5t-111 34.5q-30 5 -60 12.5t-54.5 21t-40 36t-15.5 57.5q0 61 45.5 100t123.5 39q51 0 91 -9.5t74 -32.5l-23 -34q-62 37 -139 37q-58 0 -93 -27t-35 -73q0 -21 10.5 -36t29 -25t44 -16.5t55.5 -11.5 t61.5 -12.5t57 -22t41.5 -39t16 -64.5q0 -60 -47 -98.5t-133 -38.5q-48 0 -95 10t-92 42l24 35q37 -26 77 -38t88 -12z"/>
<glyph glyph-name="afii10103" horiz-adv-x="185" unicode="і" d="M70 0v491h44v-491h-44zM125 653q0 -14 -9.5 -23.5t-23.5 -9.5q-13 0 -22.5 9.5t-9.5 23.5t9.5 23t22.5 9q14 0 23.5 -9t9.5 -23z"/>
<glyph glyph-name="afii10104" horiz-adv-x="205" unicode="ї" d="M80 0v491h44v-491h-44zM51 650q0 -13 -9.5 -22.5t-23.5 -9.5q-12 0 -21.5 9.5t-9.5 22.5q0 14 9.5 23t21.5 9q14 0 23.5 -9t9.5 -23zM219 650q0 -13 -9 -22.5t-23 -9.5q-13 0 -22.5 9.5t-9.5 22.5q0 14 9.5 23t22.5 9q14 0 23 -9t9 -23z"/>
<glyph glyph-name="afii10105" horiz-adv-x="220" unicode="ј" d="M94 491h45v-578q0 -64 -27 -93t-84 -29h-37v41h31q40 0 56 19t16 70v570zM150 653q0 -14 -9.5 -23.5t-23.5 -9.5q-13 0 -22.5 9.5t-9.5 23.5t9.5 23t22.5 9q14 0 23.5 -9t9.5 -23z"/>
<glyph glyph-name="afii10106" horiz-adv-x="711" unicode="љ" d="M640 137q0 41 -27.5 68.5t-85.5 27.5h-162v-192h161q54 0 84 23.5t30 72.5zM365 273h166q42 0 71 -11.5t48 -30.5t27.5 -43.5t8.5 -50.5q0 -68 -44 -102.5t-119 -34.5h-203v450h-169v-187q0 -59 -8 -103t-23.5 -77t-38.5 -56.5t-52 -40.5l-22 33q24 16 43 36t32 49t20 71 t7 101v215h256v-218z"/>
<glyph glyph-name="afii10107" horiz-adv-x="717" unicode="њ" d="M650 137q0 41 -28 68.5t-85 27.5h-163v-192h162q53 0 83.5 23.5t30.5 72.5zM374 273h167q41 0 70.5 -11.5t48 -30.5t27 -43.5t8.5 -50.5q0 -68 -43.5 -102.5t-118.5 -34.5h-203v233h-232v-233h-44v491h44v-219h232v219h44v-218z"/>
<glyph glyph-name="afii10108" horiz-adv-x="490" unicode="ћ" d="M293 494q150 0 150 -168v-326h-45v314q0 73 -28 104.5t-84 31.5q-18 0 -40.5 -6t-46.5 -16.5t-49 -24t-48 -28.5v-375h-45v579h-53v38h53v99h45v-99h234v-38h-234v-160q69 44 114.5 59.5t76.5 15.5z"/>
<glyph glyph-name="afii10109" horiz-adv-x="472" unicode="ќ" d="M65 0v492h45v-219h132q29 0 53.5 13t41.5 59l55 147h45l-52 -140q-13 -35 -27.5 -60.5t-43.5 -33.5q18 -4 29.5 -13t20 -21.5t15 -28.5t12.5 -34l56 -161h-47l-53 155q-8 24 -18 39.5t-22 24t-26 11.5t-32 3h-139v-233h-45zM204 575l78 154l49 -19l-100 -147z"/>
<glyph glyph-name="afii10110" horiz-adv-x="428" unicode="ў" d="M125 674q6 -33 31.5 -53t57.5 -20q33 0 56.5 17.5t31.5 55.5h39q-3 -19 -11.5 -38.5t-23.5 -35.5t-38 -26t-54 -10q-32 0 -55 10t-39 26t-24 35.5t-10 38.5h39zM116 -198l72 200l-28 29l-153 459h47q20 -57 38 -114t38 -115l75 -222h1l81 222q21 58 42 115t41 114h47 q-63 -174 -126.5 -344.5t-126.5 -343.5h-48z"/>
<glyph glyph-name="afii10193" horiz-adv-x="485" unicode="џ" d="M436 490v-490h-176v-125h-46v125h-164v490h44v-450h297v450h45z"/>
<glyph glyph-name="afii10050" horiz-adv-x="507" unicode="Ґ" d="M107 645v-645h-47v689h394v116h47v-160h-394z"/>
<glyph glyph-name="afii10098" horiz-adv-x="388" unicode="ґ" d="M342 592h47v-143h-298v-449h-46v491h297v101z"/>
<glyph glyph-name="schwacyrillic" horiz-adv-x="466" unicode="ә" d="M93 183q0 -41 12 -69t32 -46t45.5 -26t51.5 -8q27 0 53 8.5t47 27t33.5 47t12.5 67.5v41h-287v-42zM380 263v47q0 41 -11.5 69t-31 45.5t-45 25t-54.5 7.5q-42 0 -78 -13.5t-62 -38.5l-27 31q33 32 75 46.5t93 14.5q42 0 76 -11.5t59 -34t38.5 -56.5t13.5 -78v-139 q0 -42 -14.5 -76t-40 -58t-60.5 -37t-77 -13q-41 0 -75.5 12.5t-59 35.5t-38 55.5t-13.5 73.5v92h332z"/>
<glyph glyph-name="endash" horiz-adv-x="493" unicode="–" d="M20 243v43h453v-43h-453z"/>
<glyph glyph-name="emdash" horiz-adv-x="993" unicode="—" d="M20 243v43h953v-43h-953z"/>
<glyph glyph-name="quoteleft" horiz-adv-x="222" unicode="‘" d="M159 690q-40 -29 -41 -72h4q17 0 27 -10t10 -27t-12 -27.5t-29 -10.5q-21 0 -33.5 15.5t-12.5 40.5q0 34 21 65t50 46z"/>
<glyph glyph-name="quotesinglbase" horiz-adv-x="200" unicode="‚" d="M60 33q0 16 12 26.5t29 10.5q21 0 33 -15.5t12 -39.5q0 -35 -20.5 -66t-49.5 -46l-16 20q39 29 41 72h-4q-37 0 -37 38z"/>
<glyph glyph-name="quotedblleft" horiz-adv-x="334" unicode="“" d="M259 710q4 -5 7 -10t8 -10q-38 -28 -40 -72h4q16 0 26 -10t10 -27t-11.5 -27.5t-28.5 -10.5q-22 0 -34 15.5t-12 40.5q0 34 20.5 65t50.5 46zM152 690q-39 -29 -40 -72h4q16 0 26 -10t10 -27t-11.5 -27.5t-28.5 -10.5q-22 0 -34 15.5t-12 40.5q0 34 20.5 65t50.5 46z"/>
<glyph glyph-name="quotedblright" horiz-adv-x="334" unicode="”" d="M70 673q0 17 11.5 27.5t28.5 10.5q22 0 34 -15.5t12 -40.5q0 -34 -20.5 -65t-50.5 -46l-15 20q38 29 40 72q-17 -1 -28.5 9t-11.5 28zM192 673q0 17 11.5 27.5t28.5 10.5q22 0 34 -15.5t12 -40.5q0 -34 -21 -65t-50 -46l-15 20q38 29 40 72q-17 -1 -28.5 9t-11.5 28z"/>
<glyph glyph-name="dagger" horiz-adv-x="447" unicode="†" d="M246 411v-605h-46v605h-177v41h177v244h46v-244h178v-41h-178z"/>
<glyph glyph-name="daggerdbl" horiz-adv-x="447" unicode="‡" d="M200 411h-177v41h177v244h46v-244h178v-41h-178v-255h178v-41h-178v-309h-46v309h-177v41h177v255z"/>
<glyph glyph-name="ellipsis" horiz-adv-x="641" unicode="…" d="M508 36q0 14 11 25.5t29 11.5q17 0 29 -11.5t12 -25.5q0 -17 -11 -29t-29 -12t-29.5 11.5t-11.5 29.5zM281 36q0 14 11 25.5t29 11.5q17 0 29 -11.5t12 -25.5q0 -17 -11.5 -29t-28.5 -12q-19 0 -30 11.5t-11 29.5zM58 36q0 14 10.5 25.5t28.5 11.5q17 0 29 -11.5 t12 -25.5q0 -17 -11.5 -29t-28.5 -12q-19 0 -29.5 11.5t-10.5 29.5z"/>
<glyph glyph-name="perthousand" horiz-adv-x="1076" unicode="‰" d="M992 298q0 22 -9 37.5t-23 25.5t-30.5 14t-31.5 4t-31 -4t-30 -14t-23 -25.5t-9 -37.5v-186q0 -22 9 -37.5t23 -25t30 -13.5t31 -4t31.5 4t30.5 13.5t23 25t9 37.5v186zM1031 106q0 -24 -10 -44t-27.5 -35t-42 -23t-53.5 -8q-59 0 -96 31.5t-37 79.5v199q0 23 10.5 43 t28.5 35t42 23.5t52 8.5q29 0 53.5 -8.5t42 -23.5t27.5 -35t10 -43v-200zM186 -17h-39l424 731h40zM676 298q0 22 -9 37.5t-23 25.5t-30.5 14t-31.5 4t-31 -4t-30 -14t-23 -25.5t-9 -37.5v-186q0 -22 9 -37.5t23 -25t30 -13.5t31 -4t31.5 4t30.5 13.5t23 25t9 37.5v186z M715 106q0 -24 -10 -44t-27.5 -35t-42 -23t-53.5 -8q-59 0 -96 31.5t-37 79.5v199q0 23 10.5 43t28.5 35t42 23.5t52 8.5q29 0 53.5 -8.5t42 -23.5t27.5 -35t10 -43v-200zM271 577q0 22 -9 37.5t-23 25t-30.5 13.5t-31.5 4t-31 -4t-30 -13.5t-23 -25t-9 -37.5v-186 q0 -22 9 -37.5t23 -25t30 -13.5t31 -4t31.5 4t30.5 13.5t23 25t9 37.5v186zM310 385q0 -24 -10 -44t-27.5 -35t-42 -23t-53.5 -8q-59 0 -96 31t-37 79v199q0 24 10.5 44t28.5 34.5t42 23t52 8.5q29 0 53.5 -8.5t42 -23t27.5 -34.5t10 -44v-199z"/>
<glyph glyph-name="guilsinglleft" horiz-adv-x="276" unicode="‹" d="M180 46l-117 173l118 172h44l-114 -172l114 -173h-45z"/>
<glyph glyph-name="guilsinglright" horiz-adv-x="276" unicode="›" d="M63 46l114 173l-114 172h44l118 -172l-117 -173h-45z"/>
<glyph glyph-name="Euro" d="M411 317v-35h-293v-50q0 -51 16.5 -87.5t43 -60.5t61 -35.5t70.5 -11.5q37 0 71.5 8.5t64.5 25.5l21 -38q-28 -17 -66.5 -28.5t-88.5 -11.5q-57 0 -102 17.5t-76 48.5t-47 73.5t-16 93.5v56h-54v35h395zM16 382v36h54v49q0 50 17 92t48.5 72.5t76 47.5t99.5 17 q45 0 83 -8.5t73 -28.5l-22 -40q-30 16 -64.5 24.5t-69.5 8.5q-38 0 -72.5 -11t-61.5 -34.5t-43 -60t-16 -87.5v-41h293v-36h-395z" unicode="€"/>
<glyph glyph-name="trademark" horiz-adv-x="808" unicode="™" d="M199 661v-365h-35v365h-127v35h288v-35h-126zM708 296v334l-135 -285h-23l-137 285v-334h-34v399h39l144 -303l143 303h37v-399h-34z"/>
<glyph glyph-name="arrowleft" horiz-adv-x="811" unicode="←" d="M756 340v-40h-620l166 -162l-30 -29l-212 212l212 211l30 -29l-166 -163h620z"/>
<glyph glyph-name="arrowup" horiz-adv-x="485" unicode="↑" d="M261 2h-39v618l-162 -165l-30 30l212 212l212 -212l-29 -30l-164 165v-618z"/>
<glyph glyph-name="arrowright" horiz-adv-x="811" unicode="→" d="M680 340l-166 163l31 29l212 -211l-212 -212l-31 29l166 162h-619v40h619z"/>
<glyph glyph-name="arrowdown" horiz-adv-x="485" unicode="↓" d="M261 79l164 166l29 -30l-212 -212l-212 212l30 30l162 -166v619h39v-619z"/>
<glyph glyph-name="carriagereturn" horiz-adv-x="840" unicode="↵" d="M754 692h42v-392h-602l164 -162l-29 -29l-209 211l209 212l29 -29l-164 -163h560v352z"/>
<glyph glyph-name="partialdiff" horiz-adv-x="530" unicode="∂" d="M53 211q0 51 16.5 92t43 69.5t60.5 44t69 15.5q16 0 37.5 -3.5t45.5 -13.5t51 -28t54 -47v9q0 73 -16.5 134t-47.5 105t-74.5 67.5t-95.5 23.5q-11 0 -26.5 -1.5t-28.5 -3.5v34q16 4 31 5t28 1q74 0 126.5 -30.5t85.5 -81t48.5 -116t15.5 -135.5q0 -86 -17 -153.5 t-47.5 -113.5t-72.5 -70t-92 -24q-42 0 -77.5 14t-61.5 41.5t-40.5 69t-14.5 96.5zM96 213q0 -47 12 -81.5t33 -57t49 -33.5t59 -11q43 0 76 23t55.5 60.5t34.5 84.5t15 95q-48 56 -96.5 79t-82.5 23q-36 0 -64.5 -16t-49 -42t-31 -58.5t-10.5 -65.5z"/>
<glyph glyph-name="gradient" horiz-adv-x="584" unicode="∇" d="M88 645q32 -91 63 -182t63 -183q20 -55 38.5 -110t37.5 -111q14 36 27 71.5t26 71.5l75 219q20 56 40 111.5t39 112.5h-409zM563 689q-61 -174 -122 -344.5t-123 -344.5h-54l-243 689h542z"/>
<glyph glyph-name="product" horiz-adv-x="588" unicode="∏" d="M490 -97v742h-390v-742h-48v786h487v-786h-49z"/>
<glyph glyph-name="summation" horiz-adv-x="488" unicode="∑" d="M32 -97v46l184 366l-184 330v45h415v-46h-359l183 -329l-188 -369h372v-43h-423z"/>
<glyph glyph-name="minus" d="M30 261v38h413v-38h-413z" unicode="−"/>
<glyph glyph-name="radical" horiz-adv-x="562" unicode="√" d="M320 -86h-41l-166 435l-72 -27l-14 33l111 42l158 -420l197 823h41z"/>
<glyph glyph-name="infinity" horiz-adv-x="728" unicode="∞" d="M189 379q-21 0 -40.5 -9t-34.5 -23.5t-23.5 -34t-8.5 -40.5q0 -23 8.5 -43.5t23.5 -35.5t34.5 -24t41.5 -9q21 0 42 10t41 26t37.5 35.5t31.5 38.5q-13 18 -30.5 37.5t-37.5 35.5t-42 26t-43 10zM541 379q-21 0 -42.5 -9.5t-41.5 -25.5t-37.5 -35.5t-32.5 -38.5 q15 -19 32.5 -38.5t37 -35.5t40.5 -26t42 -10q22 0 41.5 9t34.5 24t23.5 35.5t8.5 43.5q0 21 -8.5 40.5t-23 34.5t-34 23.5t-40.5 8.5zM375 308q16 21 36 39.5t42 33t44.5 23t44.5 8.5q30 0 55 -10.5t43.5 -29t29 -44.5t10.5 -56q0 -32 -11 -58.5t-30 -46t-45 -30t-55 -10.5 q-26 0 -48.5 9.5t-43.5 25.5t-41.5 37.5t-41.5 46.5q-21 -26 -41 -47.5t-41.5 -37.5t-44.5 -25t-50 -9q-29 0 -54 10.5t-43.5 29.5t-29.5 45.5t-11 59.5q0 30 11 55.5t29.5 44t44 29.5t55.5 11q24 0 48.5 -10.5t47.5 -27t44 -38t37 -43.5z"/>
<glyph glyph-name="logicaland" horiz-adv-x="500" unicode="∧" d="M466 -1h-40l-175 462l-177 -462h-40l198 511h37z"/>
<glyph glyph-name="logicalor" horiz-adv-x="500" unicode="∨" d="M466 511l-197 -511h-37l-198 511h40l177 -463l175 463h40z"/>
<glyph glyph-name="intersection" horiz-adv-x="500" unicode="∩" d="M467 0h-38v313q0 31 -12.5 61t-36 53.5t-57 38t-76.5 14.5q-41 0 -74 -14t-56 -37.5t-35 -53.5t-12 -62v-313h-37v313q0 40 14.5 76.5t42 64.5t67 45t90.5 17t91.5 -15.5t69 -42.5t44 -64.5t15.5 -80.5v-313z"/>
<glyph glyph-name="union" horiz-adv-x="500" unicode="∪" d="M467 204q0 -44 -15.5 -81t-44 -64t-69 -42.5t-91.5 -15.5t-90.5 16.5t-67 44.5t-42 65t-14.5 77v313h37v-313q0 -33 12 -63t35 -53t56 -37t74 -14q43 0 76.5 14.5t57 38t36 53.5t12.5 61v313h38v-313z"/>
<glyph glyph-name="approxequal" d="M449 212q-20 -31 -44 -50t-64 -19q-26 0 -53.5 9.5t-54.5 20.5t-53 20.5t-48 9.5q-26 0 -44 -13.5t-37 -33.5l-28 23q21 30 49 47t61 17q27 0 53 -9.5t52 -20.5t52 -20.5t52 -9.5t42.5 13t34.5 38zM449 362q-20 -30 -44 -49.5t-64 -19.5q-26 0 -53.5 9.5t-54.5 21t-53 21 t-48 9.5q-26 0 -44 -13.5t-37 -33.5l-28 23q21 30 49 47t61 17q27 0 53 -9.5t52 -21t52 -21t52 -9.5t42.5 13.5t34.5 38.5z" unicode="≈"/>
<glyph glyph-name="notequal" d="M44 33l90 130h-104v38h132l96 139h-228v37h255l94 135h42l-94 -135h116v-37h-144l-96 -139h240v-38h-267l-90 -130h-42z" unicode="≠"/>
<glyph glyph-name="lessequal" d="M30 1v37h412v-37h-412zM443 93l-414 171v35l414 171v-42l-367 -146l367 -148v-41z" unicode="≤"/>
<glyph glyph-name="greaterequal" d="M30 0v38h413v-38h-413zM29 133l367 148l-367 147v41l415 -171v-35l-415 -171v41z" unicode="≥"/>
<glyph glyph-name="lozenge" horiz-adv-x="460" unicode="◊" d="M230 554h-1q-39 -73 -78.5 -145.5t-79.5 -145.5q40 -72 80 -145t78 -145h2l156 290zM437 263q-46 -87 -92 -172t-93 -170h-44l-188 342q47 85 94 171.5t94 171.5h44z"/>
</font>
</defs>
</svg>
